<svg width="70" height="70" fill="none" xmlns="http://www.w3.org/2000/svg"><path d="M67.3162 48.3385L48.8467 29.7337l2.0499-10.0964c.5289.2065 1.0912.3144 1.659.3185h.014c2.608.0308 4.7473-2.0584 4.7782-4.6665.0309-2.6081-2.0584-4.7473-4.6665-4.7782-2.6081-.0308-4.7473 2.0584-4.7783 4.6665-.0065.5581.0858 1.1129.2729 1.6387l-10.85 1.3242L19.6276.35c-.2172-.221521-.5135-.34752083-.8237-.35-.3063.00160417-.5995.123521-.8167.3395l-3.3086 3.29c-.4555.45558-.4555 1.19408 0 1.64967l1.7803 1.806C9.56156 19.7681 11.8018 35.4741 21.9702 45.7228c.0934.0893.2016.1615.3197.2135-.0735.3948-.1119.7954-.1143 1.197v13.5334H8.17556c-3.22.0038-5.82954 2.6133-5.83334 5.8333v2.3333c0 .6443.52238 1.1667 1.16667 1.1667H57.1756c.6443 0 1.1666-.5224 1.1666-1.1667V66.5c-.0038-3.22-2.6133-5.8295-5.8333-5.8333h-14v-5.9979c2.1932.46 4.4278.6945 6.6687.7 5.3771-.0058 10.6687-1.3463 15.4-3.9013l1.7896 1.8002c.2172.2215.5135.3475.8237.35.3062-.0016.5995-.1236.8167-.3395l3.3086-3.29c.4555-.4556.4555-1.1941 0-1.6497zM50.9246 13.6348c.9136-.9088 2.391-.9047 3.2997.0089.9089.9137.9048 2.3911-.0089 3.2998-.4373.435-1.0291.6791-1.646.679h-.007c-1.2886-.0067-2.3279-1.0567-2.3212-2.3454.0032-.6169.2505-1.2072.6879-1.6423h-.0045zm-2.7464 7.6662l-1.309 6.4435-2.5713-2.5865 3.8803-3.857zm-1.3253-1.9728l-4.2 4.1755-3.2492-3.2667 7.4492-.9088zM52.5089 63c1.933 0 3.5 1.567 3.5 3.5v1.1667H4.67556V66.5c0-1.933 1.56698-3.5 3.5-3.5H52.5089zm-16.3333-4.6667v2.3334H24.5089v-2.3334h11.6667zM24.5089 56v-8.8667c0-2.8303 2.6168-5.1333 5.8333-5.1333 3.2165 0 5.8334 2.303 5.8334 5.1333V56H24.5089zm14-3.71v-5.1567c0-4.1171-3.6633-7.4666-8.1667-7.4666-2.9117-.0447-5.6344 1.4374-7.1773 3.9071-8.8763-9.3489-10.8751-23.2863-4.9844-34.75307L58.8719 49.7455c-6.2834 3.1964-13.4862 4.0963-20.363 2.5445zm24.6948-1.4957l-1.6438-1.6531L18.7922 6.11567l-1.6508-1.65434 1.6508-1.645L36.1499 20.272c.0082 0 .0128.0152.021.021l28.6883 28.8563-1.6555 1.645z" fill="#212121"/><path d="M30.3527 44.3333h-.0105c-1.933-.0029-3.5023 1.5617-3.5052 3.4948-.0029 1.933 1.5617 3.5023 3.4947 3.5052h.0105c1.933.0029 3.5024-1.5617 3.5053-3.4947.0029-1.9331-1.5618-3.5024-3.4948-3.5053zm.8167 4.3272c-.2196.2184-.5173.3407-.8272.3395-.6443-.0034-1.1639-.5284-1.1605-1.1727.0016-.3084.1253-.6036.3439-.8211.2171-.216.5104-.3379.8166-.3395.6443.0033 1.1639.5283 1.1606 1.1726-.0016.3084-.1253.6036-.3439.8212h.0105z" fill="#2196F3"/></svg>