<svg width="70" height="70" fill="none" xmlns="http://www.w3.org/2000/svg"><path d="M69.9433 9.8964c-.1377-.42124-.5017-.72913-.9415-.79339l-4.179-.60786-1.8702-3.78703c-.392-.79804-1.6999-.79804-2.0918 0l-1.8702 3.78703-4.1792.608c-.4398.06412-.8038.37106-.9427.79339-.1364.42236-.0234.88666.2952 1.19586l3.0252 2.9483-.7139 4.1627c-.0747.4375.105.8797.4632 1.1411.3628.2637.8364.2963 1.2296.0886l3.7381-1.9659 3.7381 1.9659c.1704.0898.3582.1341.5437.1341.2415 0 .4831-.0746.6861-.2228.3593-.2613.539-.7036.4632-1.1411l-.7139-4.1628 3.0252-2.9482c.3169-.3104.4313-.7736.2948-1.1959zm-5.3877 2.9027c-.2741.2672-.4001.6545-.3348 1.0325l.4177 2.4372-2.1886-1.1503c-.1704-.0899-.357-.1342-.5438-.1342-.1866 0-.3721.0443-.5437.1342l-2.1888 1.1503.4177-2.4372c.0654-.378-.0607-.7641-.3348-1.0325l-1.7722-1.7266 2.4477-.3559c.3804-.0548.7082-.294.8786-.6382l1.0943-2.21668 1.0943 2.21668c.1704.3441.4982.5834.8786.6382l2.4477.3559-1.7699 1.7266zM57.167 44.8923h-2.3334v2.3334h2.3334v-2.3334zM57.167 49.5591h-2.3334v2.3334h2.3334v-2.3334zM59.5004 47.2257H57.167v2.3334h2.3334v-2.3334zM54.8337 47.2257h-2.3334v2.3334h2.3334v-2.3334zM49.0002 57.7259h-2.3334v2.3334h2.3334v-2.3334zM49.0002 62.3926h-2.3334v2.3334h2.3334v-2.3334zM51.3337 60.0593h-2.3335v2.3334h2.3335v-2.3334zM46.6668 60.0593h-2.3334v2.3334h2.3334v-2.3334zM35 53.0592h-2.3334v2.3334H35v-2.3334zM35 57.7259h-2.3334v2.3334H35v-2.3334zM37.3334 55.3925H35v2.3334h2.3334v-2.3334zM32.6666 55.3925h-2.3334v2.3334h2.3334v-2.3334zM12.833 13.3918h-2.3334v2.3334h2.3334v-2.3334zM12.833 18.0587h-2.3334v2.3334h2.3334v-2.3334zM15.1663 15.7253h-2.3334v2.3334h2.3334v-2.3334zM10.4996 15.7253H8.1662v2.3334h2.3334v-2.3334z" fill="#2196F3"/><path d="M54.0635 30.9738c-.6287-.8482-1.5516-1.3941-2.5993-1.5412-1.0523-.1493-2.0907.1271-2.9307.77l-2.7383 2.0988-.0012.0012-4.1511 3.0999-2.9704-1.183c5.2967-2.3765 8.9987-7.6745 8.9987-13.8253 0-8.3628-6.831-15.16681-15.2276-15.16681S17.2162 12.0314 17.2162 20.3942c0 3.0311.9064 5.8498 2.45 8.2216l-6.0458-.0525h-.0105c-.0187 0-.0338.0093-.0513.0105-.1155.0047-.2287.0281-.3395.0677-.028.0105-.0571.0164-.0839.0291-.014.0059-.028.007-.042.014l-7.07242 3.4918c-.00123 0-.00232 0-.00232.0011l-4.14183 1.9918c-.04553.0198-.09215.0466-.13768.077C.0880496 35.3452-.474284 37.5036.429989 39.2676c.481804.938 1.301991 1.6288 2.310041 1.9449.38856.1212.78518.1808 1.17949.1808.63356 0 1.26125-.1551 1.8363-.4619l3.03575-1.6147 4.95253-2.5574 2.9681-.0175L4.80848 48.5884c-.0011.0012-.00233.0012-.00356.0023L1.8765 51.5074c-.69181.6884-1.07217 1.6018-1.07217 2.5761 0 .973.38036 1.8888 1.07217 2.5784.71053.707 1.64502 1.0617 2.57951 1.0617.93572 0 1.86897-.3547 2.58184-1.0617l2.87469-2.8631 3.80806-2.8432 1.9706 1.9623-3.8536 3.8373c-.0011.0012-.0024.0012-.0036.0023l-2.92841 2.9166c-.69181.6884-1.07216 1.6019-1.07216 2.5761 0 .9731.38035 1.8888 1.07216 2.5785.71054.7069 1.64621 1.0616 2.58071 1.0616.9345 0 1.8702-.3547 2.5819-1.0616l2.9295-2.9167 4.6865-4.6667c.0012-.0012.0012-.0023.0023-.0036l2.2086-2.1875-.0082-.0082c.014-.0139.0338-.0187.0479-.0338l11.3005-12.3773 7.5928 1.0804c.0548.0082.1096.0116.1645.0116.1412 0 .2777-.0338.4095-.084.0385-.0139.0723-.0326.1085-.0512.042-.0211.0863-.0327.1261-.0595l7.0292-4.6667c.0257-.0175.0397-.0455.0641-.0641.028-.0222.0631-.0315.0886-.0561l2.7813-2.6052c1.4472-1.356 1.6467-3.5773.4636-5.1663zM4.66027 38.8722c-.37913.203-.80966.2438-1.22146.1132-.40839-.1271-.73966-.4061-.9334-.7829-.35233-.686-.1482-1.5214.46895-1.9728l2.8736-1.3826.69181 2.0219.29053.8493-2.17003 1.1539zm7.64993-3.9981l-3.38684 1.75-.55877-1.6334-.40128-1.1737 4.43349-2.1888-.0866 3.2459zm33.03-14.4822c0 2.009-.4795 3.9038-1.3102 5.5989l-9.1468-4.1546c-.0957-1.2541-.7466-2.352-1.7243-3.0357l3.2026-10.63197c5.2011 1.65445 8.9787 6.50667 8.9787 12.22337zm-25.7883 0c0-7.076 5.7844-12.83356 12.8942-12.83356.553 0 1.0943.04662 1.6298.1143L30.9434 18.0714c-.042-.0013-.0817-.0129-.1249-.0129-2.2587 0-4.0963 1.8317-4.0963 4.0834s1.8376 4.0835 4.0963 4.0835c1.519 0 2.8315-.8388 3.5397-2.0663l8.4491 3.8385c-2.3509 3.164-6.1135 5.2279-10.3614 5.2279-7.1096 0-12.894-5.7576-12.894-12.8336zm13.0295 1.75c0 .9649-.7911 1.7501-1.7629 1.7501-.9718 0-1.7628-.7852-1.7628-1.7501 0-.9648.791-1.75 1.7628-1.75.9718 0 1.7629.7852 1.7629 1.75zM5.39186 55.0075c-.5168.5121-1.3534.511-1.86897.0012-.24856-.2486-.38501-.5763-.38501-.9252 0-.3477.13645-.6755.38501-.9216l2.10454-2.0967 1.86201 1.854-2.09758 2.0883zm7.03034 8.1668c-.5168.5122-1.3545.5134-1.8702.0013-.2486-.2486-.385-.5763-.385-.9252 0-.3477.1364-.6756.385-.9217l2.1059-2.0977.8809.8763.9823.9777-2.0989 2.0893zm7.6162-7.5881c-.0013.0011-.0024.0011-.0036.0023l-3.8606 3.8501-.8809-.8763-.9823-.9777 3.857-3.8395v-.0011c.0013-.0012.0023-.0012.0036-.0023.0875-.0875.1423-.1925.196-.2963.0152-.0303.0443-.056.0572-.0875.0362-.0898.042-.1866.056-.2812.007-.0538.0304-.1038.0304-.1588 0-.0782-.028-.1539-.0443-.231-.014-.07-.014-.1412-.0409-.2088-.0443-.1096-.1202-.2064-.1995-.301-.0221-.0257-.0303-.0584-.0548-.0829h-.0012c-.0012-.0011-.0012-.0036-.0023-.0046l-3.5153-3.5001c-.0373-.0373-.0851-.0525-.1271-.0839-.0618-.0479-.1213-.0922-.1902-.1261-.0664-.0327-.1341-.0525-.2041-.0712-.0747-.0211-.147-.0374-.2252-.0432-.0712-.0047-.1377.0023-.2088.0105-.0782.0093-.1516.0198-.2275.0443-.0735.0234-.1388.0595-.2064.098-.0432.0245-.0922.0327-.1331.063l-3.87914 2.8958-1.97056-1.9624 5.2478-5.2197 9.5388 9.3814-2.029 2.0102zm14.9161-15.349c-.0338-.0046-.0654.0082-.0991.0059-.0852-.0046-.1668.0012-.252.0152-.0665.0116-.1295.0245-.1925.0466-.0747.0257-.1423.0607-.2113.1027-.0653.0396-.1248.0816-.1819.1341-.0281.0245-.0618.0362-.0875.0641L23.6527 51.8621l-9.4676-9.3114 6.1974-6.1648c.4562-.455.4586-1.1935.0035-1.6509-.2298-.2298-.5319-.343-.8341-.3418v-.0011l-4.8534.0292.0607-3.5164 6.7901.0584c2.7673 2.8304 6.6267 4.5956 10.8968 4.5956.9566 0 1.89-.0991 2.7988-.2684.0875.07.1737.1413.2835.1856l5.2712 2.1.3336 1.659.3896 1.9366-6.5683-.9345zm8.8399.3897l-.6848-3.4079 3.164-2.3626.8284 1.099 1.2425 1.6497-4.5501 3.0218zm8.2111-6.1928l-1.8329 1.7174-2.037-2.7044 1.8188-1.3941c.3395-.2613.7677-.3675 1.1877-.3127.4223.0595.7957.28 1.05.6218.4738.6382.3932 1.5284-.1866 2.072z" fill="#212121"/><path d="M29.7545 40.5651l-4.6877-4.6667c-.4538-.4538-1.1913-.4538-1.6463 0l-4.6865 4.6667c-.2193.2205-.343.5168-.343.8271 0 .3104.1225.6079.343.8272l4.6865 4.6667c.2275.2263.5263.3395.8238.3395s.5961-.1132.8225-.3395l4.6877-4.6667c.2193-.2193.3442-.5168.3442-.8272 0-.3103-.1238-.6078-.3442-.8271zm-5.5102 3.8477l-3.0334-3.0206 3.0334-3.0205 3.0345 3.0205-3.0345 3.0206zM37.5468 11.0923l-.5635 2.2658c.1552.0385 3.8011.9882 3.8011 4.7006h2.3334c-.0001-4.4126-3.6436-6.4869-5.571-6.9664zM43.1178 20.3919h-2.3334v2.3334h2.3334v-2.3334z" fill="#212121"/></svg>