<svg width="170" height="90" fill="none" xmlns="http://www.w3.org/2000/svg"><rect x=".5" y=".5" width="169" height="89" rx="3.5" stroke="#AFB1B8"/><path d="M81.977 21.9345h.1366c.253 0 .5262.0254.7969.0483 1.1926.0842 2.3768.2627 3.5416.534v-2.8633c-1.1993-.3009-2.4224-.4957-3.6555-.5823-.468-.0356-.9663-.0585-1.4773-.0712h-.4276c-2.4749.0093-4.9391.3271-7.3362.946-2.7302.6809-5.3508 1.7468-7.7839 3.1659v28.3967c2.3427-1.2729 4.8355-2.2443 7.4197-2.8913 2.0403-.5206 4.1262-.8408 6.2281-.9561h.0835c.3517-.0178.7033-.028 1.065-.0306v-2.909c-2.7312.0351-5.4486.3962-8.0951 1.0756-.979.2543-1.9251.5289-2.813.8341l-1.0119.3433V24.8334l.4326-.2085c3.3012-1.5654 6.8717-2.4763 10.516-2.6828.0303-.0022.0608-.0022.0911 0 .4022-.0203.807-.0305 1.2041-.0305H81.3471c.21.0051.4199.0102.6299.0229z" fill="#AFB1B8"/><path d="M89.1108 24.9326c-.6653 0-1.323-.0229-1.958-.0712-.7589-.056-1.5381-.1475-2.2767-.2721-.4503-.0763-.893-.1678-1.3231-.267v28.0712c1.8207.4508 3.6903.6712 5.5654.6561 2.4747-.0101 4.9387-.3269 7.3362-.9435 2.7307-.6818 5.3524-1.7476 7.7864-3.1659V21.0496c-2.342 1.2722-4.8341 2.2444-7.4171 2.8938-2.5207.6474-5.1114.9797-7.7131.9892zm11.2242.4857l1.012-.3408v22.1488l-.432.2085c-1.6598.7895-3.3926 1.4121-5.1738 1.8589-2.163.5596-4.3867.8475-6.6203.8569-.6678 0-1.3306-.0279-1.9732-.0839l-.6931-.061V27.2288l.807.0534c.5869.0382 1.194.056 1.8543.056 2.8355-.0101 5.659-.3722 8.4062-1.0782.9436-.2492 1.8822-.5289 2.8129-.8417zM67.7372 61.2124c-.1455-.1509-.3209-.2694-.5148-.3478-.1939-.0784-.4021-.115-.611-.1074-.2226-.003-.4436.0385-.6501.1221-.1894.0754-.3615.1887-.5059.3331-.1429.1448-.2541.318-.3264.5086-.0793.1997-.1188.4131-.1163.6281v3.794c-.0091.2673.0419.5333.1492.7781.0896.1944.2189.3677.3795.5086.1516.1277.3296.2197.5211.2696.1845.0518.3751.0783.5666.0788.2113.0021.4205-.0431.6122-.1322.1897-.083.3615-.2022.506-.351.1409-.1474.2532-.3198.3314-.5086.0811-.1913.1224-.3972.1214-.6052v-.4246h-.9916v.3382c.0029.1155-.0169.2304-.0582.3382-.0323.0807-.0815.1536-.1442.2136-.0615.0496-.1319.0868-.2075.1093-.0669.0223-.1369.0343-.2074.0356-.0885.0103-.1782-.003-.2599-.0388-.0818-.0357-.1527-.0925-.2056-.1646-.0935-.1525-.1393-.3296-.1315-.5086v-3.5372c-.0062-.1961.0355-.3908.1214-.567.0515-.0801.1243-.144.2102-.1845.0859-.0405.1814-.0559.2755-.0444.0855-.003.1704.0148.2475.052s.1441.0927.1952.1616c.111.1457.169.3252.1645.5086v.328h.9815v-.3865c.002-.227-.0392-.4523-.1214-.6637-.0733-.1988-.1861-.3805-.3314-.534zM73.6289 61.1691c-.3162-.267-.7153-.4145-1.1283-.417-.202.0008-.4023.037-.5919.1068-.1926.069-.3703.1743-.5237.3102-.1643.1477-.2954.3289-.3845.5315-.0999.2317-.1491.4824-.1442.7349v3.6389c-.0068.256.0424.5103.1442.7451.0897.1956.221.3692.3845.5085.1516.1408.3297.2497.5237.3205.1896.0698.3899.1059.5919.1068.2021-.0004.4024-.0366.592-.1068.1973-.0718.3793-.1805.5363-.3205.1582-.1419.2856-.315.3744-.5085.1018-.2348.151-.4891.1442-.7451v-3.6389c.0049-.2525-.0443-.5032-.1442-.7349-.0883-.2005-.2156-.3812-.3744-.5315zm-.463 4.9053c.0084.097-.005.1946-.0391.2857-.0342.0911-.0882.1733-.1582.2407-.131.1098-.2961.17-.4667.17-.1706 0-.3358-.0602-.4667-.17-.07-.0674-.124-.1496-.1582-.2407-.0341-.0911-.0475-.1887-.0392-.2857v-3.6389c-.0083-.097.0051-.1946.0392-.2857.0342-.0911.0882-.1734.1582-.2407.1309-.1098.2961-.17.4667-.17.1706 0 .3357.0602.4667.17.07.0673.124.1496.1582.2407.0341.0911.0475.1887.0391.2857v3.6389zM81.3673 67.6994v-6.8887h-.9537l-1.2522 3.6465h-.0177l-1.2623-3.6465h-.9436v6.8887h.984v-4.1907h.0177l.9639 2.9625h.4907l.9715-2.9625h.0177v4.1907h.984zM86.958 61.2937c-.1515-.17-.3428-.2994-.5565-.3764-.2303-.0749-.4714-.111-.7134-.1068h-1.4622v6.8888h.9815v-2.6904h.506c.3062.0139.6109-.0509.8854-.1882.2231-.1239.4092-.3057.5388-.5264.1136-.1832.1901-.3872.2252-.6001.0386-.2592.0564-.5212.0531-.7832.0095-.3308-.0228-.6615-.0962-.9841-.0654-.2384-.1899-.4563-.3617-.6332zm-.506 2.1004c-.0042.1247-.0353.2471-.091.3586-.0561.1059-.1449.1907-.253.2415-.1454.0651-.304.0947-.4629.0865h-.4478v-2.342h.5059c.1524-.0075.3043.0222.4428.0864.1014.0583.182.1473.2302.2543.0536.121.0828.2516.086.384v.4577c0 .1602.0101.3255 0 .473h-.0102zM91.6076 60.8107h-.8044l-1.5179 6.8887h.9816l.2884-1.48h1.3382l.2884 1.48h.9815l-1.5558-6.8887zm-.9056 4.4704l.4832-2.4971h.0177l.4806 2.4971h-.9815zM97.9497 64.9607h-.0177l-1.4825-4.15h-.9435v6.8887h.9815V63.557h.0202l1.5001 4.1424h.9234v-6.8887h-.9815v4.15zM103.948 60.8107l-.79 2.7387h-.02l-.789-2.7387h-1.04l1.348 3.9771v2.9116h.982v-2.9116l1.348-3.9771h-1.039zM65 69.6445h.4731v1.3274h.3212v-1.3274h.4706v-.2721H65v.2721zM68.9767 69.3724l-.6198 1.5995h.3415l.1316-.3636h.6375l.1366.3636h.3491l-.635-1.5995h-.3415zm-.0506.9663l.2176-.5925.2175.5925h-.4351zM72.9079 70.3821h.3694v.206c-.1079.0865-.2415.1339-.3795.1348-.0645.0036-.1289-.0084-.1879-.0349-.059-.0266-.1108-.0669-.1511-.1177-.0848-.1218-.1266-.2686-.1189-.417 0-.356.1543-.534.4604-.534.0806-.0081.1614.0132.2277.0598.0664.0466.1139.1156.1341.1944l.3162-.061c-.0683-.3128-.2934-.4704-.678-.4704-.2056-.0055-.4056.0682-.559.206-.0806.0795-.143.1758-.1827.2821-.0398.1063-.056.22-.0475.3332-.0094.2189.0638.4332.2049.6002.0783.0808.1732.1435.278.1839.1048.0404.2171.0574.3291.05.2503.007.4934-.0842.678-.2543v-.6306h-.6932v.2695zM76.9226 69.3724h-.3238v1.5995h1.1207v-.2721h-.7969v-1.3274zM80.3175 69.3724h-.3238v1.5995h.3238v-1.5995zM83.6365 70.4405l-.6552-1.0681h-.3137v1.5995h.301v-1.0451l.6426 1.0451h.3213v-1.5995h-.296v1.0681zM86.6367 70.2675h.7969v-.2721h-.7969v-.3509h.8576v-.2721h-1.1814v1.5995h1.2143v-.2721h-.8905v-.4323zM93.9122 70.0031h-.6299v-.6307h-.3213v1.5995h.3213v-.6993h.6299v.6993h.3213v-1.5995h-.3213v.6307zM96.9302 70.2675h.7994v-.2721h-.7994v-.3509h.8601v-.2721h-1.1814v1.5995h1.2118v-.2721h-.8905v-.4323zM101.023 70.2676c.279-.0432.42-.1907.42-.445.008-.068-.002-.137-.03-.1996-.027-.0627-.071-.1167-.127-.1564-.144-.0728-.306-.1052-.468-.0941h-.678v1.5995h.322v-.6688h.063c.068-.0042.137.008.2.0356.047.029.086.0691.114.117l.349.5086h.384l-.195-.3128c-.086-.1544-.207-.286-.354-.384zm-.324-.2212h-.237v-.4018h.253c.11-.0089.221.004.326.0381.023.0207.042.0464.054.0752.012.0288.018.06.016.0913-.001.0312-.01.0618-.024.0893-.015.0275-.036.0514-.061.0697-.106.0324-.216.0453-.327.0382zM104.11 70.2675h.796v-.2721h-.796v-.3509h.86v-.2721h-1.184v1.5995H105v-.2721h-.89v-.4323z" fill="#AFB1B8"/></svg>