<svg width="170" height="90" fill="none" xmlns="http://www.w3.org/2000/svg"><rect x=".5" y=".5" width="169" height="89" rx="3.5" stroke="#AFB1B8"/><path d="M60.4876 61.2778c.2299.2856.3524.6434.346 1.0106.0117.2396-.0304.4787-.1232.6996-.0928.221-.2339.4182-.4129.577-.4465.3387-.9998.5042-1.5582.4663H56v-6.405h2.6832c.5297-.0354 1.0551.115 1.4866.4255.1733.1456.3105.3297.4008.5377.0903.2079.1313.4341.1196.6607.0158.3533-.0948.7007-.3116.9794-.2082.2545-.496.4309-.8165.5006.3634.0666.6914.2607.9255.5476zm-3.213-.9669h1.1469c.2606.0194.5195-.0561.7292-.2127.0861-.0784.1531-.1756.1958-.2841.0427-.1085.0599-.2254.0504-.3417.0081-.1159-.0095-.2321-.0516-.3403-.042-.1082-.1074-.2057-.1915-.2855-.216-.161-.4829-.2378-.751-.2159h-1.1282v1.6802zm1.9883 2.4563c.092-.0803.1644-.1807.2114-.2936.047-.1129.0675-.2351.0597-.3573.007-.1235-.0143-.247-.0624-.3609-.0481-.114-.1216-.2153-.2149-.2961-.2244-.1671-.5004-.2491-.7791-.2316h-1.203v1.7616h1.2185c.2743.0159.5458-.0624.7698-.2221zM65.9725 64.0313l-1.4927-2.5032h-.561v2.5032h-1.2839v-6.405h2.4308c.6127-.0429 1.2184.152 1.6922.5445.3398.3476.5447.8056.5779 1.2916.0331.4859-.1077.9677-.3972 1.3586-.2999.3449-.7095.5749-1.1593.6508l1.5894 2.5595h-1.3962zm-2.0537-3.3761h1.0503c.7292 0 1.0938-.3234 1.0938-.97.0075-.1321-.0125-.2642-.0587-.3881-.0461-.1239-.1174-.2368-.2093-.3316-.2304-.1924-.5272-.2857-.8258-.2597h-1.0627l.0124 1.9494zM72.9907 62.742h-2.5586l-.4518 1.2891H68.634l2.3498-6.333h1.4553l2.3404 6.333h-1.3462l-.4426-1.2891zm-.3428-.97l-.9349-2.7034-.9349 2.7034h1.8698zM81.7759 64.0312h-1.2746l-2.8578-4.3555v4.3555H76.372v-6.405h1.2715l2.8578 4.3806v-4.3806h1.2746v6.405zM89.0496 62.4981c-.2635.4836-.6651.8769-1.1531 1.1295-.5548.2814-1.1706.4201-1.7919.4037h-2.2688v-6.405h2.2688c.6203-.0163 1.2352.119 1.7919.3943.4879.2468.8899.6363 1.1531 1.117.2623.5209.399 1.0965.399 1.6802 0 .5838-.1367 1.1594-.399 1.6803zm-1.4585-.1533c.3638-.4255.5638-.9678.5638-1.5285 0-.5608-.2-1.103-.5638-1.5285-.4397-.3854-1.0131-.5811-1.5956-.5445h-.8851v4.1459h.8851c.5825.0366 1.1559-.159 1.5956-.5444zM73.7885 22S90.24 28.236 89.891 37.2599v15.263s-16.4391-6.2391-16.0963-15.263L73.7885 22zM104.548 48.9496c3.107-2.1468 6.7-3.4765 10.452-3.8674v-4.7779c-4.323 1.6727-7.99 4.7058-10.452 8.6453z" fill="#AFB1B8"/><path d="M102.681 50.389c2.543-5.1412 6.952-9.1085 12.319-11.0858V25.5358s-23.4292 8.8831-22.9337 21.7337V69s1.044-.3973 2.6863-1.142c0-.6947 0-1.3955.0748-2.0996.4849-5.9658 3.3097-11.4941 7.8536-15.3694z" fill="#AFB1B8"/><path d="M100.453 58.4617c.123-1.5071.397-2.9978.819-4.4494-2.829 3.3466-4.5423 7.4994-4.8988 11.8744-.0343.413-.053.826-.0623 1.2516 1.3307-.6415 2.8795-1.4425 4.5061-2.3843-.415-2.0698-.538-4.1881-.364-6.2923zM101.384 58.54c-.156 1.9037-.058 3.8199.29 5.6978 6.401-3.8455 13.594-9.7874 13.317-16.9683v-.6258c-4.574.5138-8.852 2.5211-12.179 5.7134-.779 1.9784-1.26 4.0622-1.428 6.1829z" fill="#AFB1B8"/></svg>