<svg width="170" height="90" fill="none" xmlns="http://www.w3.org/2000/svg"><rect x=".5" y=".5" width="169" height="89" rx="3.5" stroke="#AFB1B8"/><path d="M85.7405 43.3533c-.4179-.6101-.6179-1.3313-.5704-2.0571v-2.9827c0-.9143.1891-1.6091.5672-2.0844.3782-.4754 1.0278-.7121 1.9487-.71.8653 0 1.4796.2022 1.8428.6068.3962.5162.589 1.1474.5448 1.7841v.7009h-1.548v-.71c.0055-.2324-.0095-.4648-.0448-.6948-.0223-.1573-.1002-.3028-.2212-.4127-.1589-.1184-.3592-.1759-.5608-.1608-.2121-.015-.4224.0456-.5897.1699-.1349.1218-.2247.2813-.2564.4551-.0444.2435-.0648.4903-.0609.7374v3.6197c-.0244.3493.0439.6987.1987 1.0165.077.1075.1839.1928.3089.2463.125.0536.2632.0733.3994.0571.1983.0155.3951-.0434.548-.1638.1262-.1185.2073-.2732.2308-.44.0361-.2401.0522-.4826.048-.7252v-.7342h1.548v.6705c.0435.6637-.1446 1.3225-.5352 1.8752-.3557.4429-.9615.6644-1.8524.6644-.891 0-1.5641-.2366-1.9455-.7282zM92.1857 43.3837c-.391-.4643-.5865-1.1409-.5865-2.036v-3.1373c0-.886.1955-1.5566.5865-2.0117.391-.4551 1.0448-.6817 1.9614-.6796.9102 0 1.5608.2265 1.9518.6796.391.4551.5897 1.1257.5897 2.0117v3.1373c0 .886-.1987 1.5657-.5961 2.0329-.3974.4673-1.0448.7009-1.9454.7009-.9005 0-1.5672-.2366-1.9614-.6978zm2.6825-.7525c.1401-.2908.2038-.6093.1859-.9285v-3.8412c.018-.313-.0447-.6254-.1827-.9103-.0785-.1098-.1881-.1965-.3161-.2501-.1281-.0537-.2695-.0721-.4082-.0533-.139-.0184-.2807.0003-.4092.0539s-.2387.14-.3183.2495c-.1409.2841-.2048.5969-.1859.9103v3.8594c-.0194.3193.0444.6382.1859.9285.0903.0979.2016.1763.3265.2301.125.0537.2606.0815.3978.0815.1373 0 .2729-.0278.3978-.0815.1249-.0538.2363-.1322.3265-.2301v-.0182zM98.5505 35.6106h1.6665l1.253 5.7886 1.282-5.7886h1.622l.163 8.3552h-1.198l-.128-5.8068-1.238 5.8068h-.961l-1.2821-5.828-.1185 5.828h-1.2115l.1506-8.3552zM106.406 35.6106h2.596c1.495 0 2.243.7908 2.243 2.3725 0 1.5149-.787 2.2713-2.362 2.2693h-.884v3.7134h-1.603l.01-8.3552zm2.218 3.5708c.158.0191.319.0053.471-.0403.152-.0455.292-.1218.41-.2236.184-.2822.265-.6136.231-.9435.008-.2549-.018-.5098-.077-.7585-.023-.0831-.063-.161-.118-.2292-.055-.0683-.124-.1255-.203-.1682-.222-.101-.468-.147-.714-.1335h-.622v2.4968h.622zM113.556 35.6106h1.721l1.766 8.3552h-1.494l-.349-1.9265h-1.535l-.359 1.9265h-1.516l1.766-8.3552zm1.471 5.4609l-.599-3.5071-.6 3.5071h1.199zM118.469 35.6106h1.122l2.147 4.7662v-4.7662h1.33v8.3552h-1.067l-2.16-4.9755v4.9755h-1.375l.003-8.3552zM126.183 40.7801l-1.785-5.1578h1.503l1.09 3.3131 1.022-3.3131h1.471l-1.762 5.1578v3.1857h-1.539v-3.1857zM88.2148 47.6189v.4369h-1.3076v3.3951h-.548v-3.3951h-1.314v-.4369h3.1696zM92.3138 51.4512h-.423c-.043.0025-.0854-.0105-.1186-.0364-.032-.0223-.0565-.0528-.0705-.088l-.3782-.9102h-1.814l-.3782.9102c-.0107.0381-.0305.0733-.0577.1032-.0335.0254-.0757.0383-.1186.0364h-.423l1.6025-3.8319h.5576l1.6217 3.8167zm-2.6537-1.4229h1.5128l-.641-1.5595c-.0473-.1179-.0869-.2385-.1186-.361-.0224.0728-.0417.1426-.0609.2033l-.0577.1608-.6346 1.5564zM95.0765 51.0748c.1004.005.2009.005.3013 0 .0866-.0084.1724-.0236.2564-.0455.0785-.0182.1556-.0415.2307-.0698.0705-.0273.141-.0607.2148-.094v-.8618h-.641c-.0159.0009-.0317-.0014-.0466-.0066-.0149-.0052-.0285-.0133-.04-.0237-.0105-.0086-.0188-.0194-.0244-.0315-.0055-.012-.0081-.0252-.0076-.0383v-.2943h1.2435v1.4686c-.1015.0687-.2087.1296-.3205.182-.1143.0534-.2333.0971-.3557.1305-.1311.0365-.2651.0629-.4007.0789-.1553.0163-.3115.0244-.4679.0243-.2764.0022-.5506-.0463-.8076-.1426-.24-.0914-.458-.2276-.641-.4006-.1784-.1747-.3189-.3809-.4134-.6068-.1011-.254-.1511-.5237-.1475-.795-.0033-.2731.0455-.5445.1443-.8011.0921-.2271.2329-.4337.4134-.6069.1829-.1724.401-.3076.641-.3975.2744-.0977.5657-.1461.8589-.1426.1492-.0002.2982.011.4455.0334.1302.0201.258.0526.3814.0971.1121.0399.2195.0907.3205.1517.0982.0599.1914.1268.2788.2003l-.1538.2367c-.0121.0216-.03.0397-.052.0525-.022.0129-.0472.0198-.073.0203-.0355-.0011-.0699-.0116-.0994-.0304-.0481-.0242-.0993-.0546-.157-.091-.0682-.0404-.14-.075-.2148-.1032-.0955-.0362-.1941-.0647-.2948-.0849-.1343-.0234-.2706-.0346-.407-.0334-.2115-.0022-.4214.0338-.6186.1062-.1783.0677-.3391.1713-.4711.3034-.1328.1378-.2343.3-.2981.4764-.1432.4151-.1432.8625 0 1.2775.0702.1802.1793.3445.3205.4824.1315.1315.291.2349.4679.3035.2038.0662.4198.092.6346.0758zM100.185 51.014h1.75v.4369h-2.2851v-3.832h.5481l-.013 3.3951zM103.755 51.4509h-.548v-3.832h.548v3.832zM105.794 47.6371c.032.0176.061.0414.083.0698l2.343 2.8886c-.003-.0454-.003-.091 0-.1365v-2.8552h.477v3.8474h-.275c-.041.0031-.082-.0042-.119-.0212-.033-.0191-.062-.0438-.086-.0729l-2.34-2.8855v2.9796h-.458v-3.8323h.285c.031.0001.062.0063.09.0182zM112.732 47.6189v.4217h-1.942v1.2653h1.574v.4065h-1.574v1.3078h1.942v.4217h-2.506v-3.823h2.506zM55.3035 23.9539l24.335 6.5414v22.922l-24.335-6.5383V23.9539zM53.7427 22v25.9925l27.4534 7.3818V29.3848L53.7427 22z" fill="#AFB1B8"/><path d="M68.4565 67.4402L41 60.0522V34.0625l27.4565 7.3849v25.9928z" fill="#AFB1B8"/><path d="M54.1978 23.6596l24.0177 6.4593-10.2141 9.6723-24.0208-6.4624 10.2172-9.6692zM53.7427 22L41 34.0631l27.4565 7.3847L81.196 29.3847 53.7427 22zM70.0013 65.978L81.196 55.3774l-11.1947-3.0127V65.978z" fill="#AFB1B8"/></svg>