<svg width="170" height="90" fill="none" xmlns="http://www.w3.org/2000/svg"><rect x=".5" y=".5" width="169" height="89" rx="3.5" stroke="#AFB1B8"/><path d="M71.3455 65.7946c.015.0004.0298.0036.0435.0095.0137.0059.026.0143.0362.0248l.2058.2157c-.1597.1745-.3572.3142-.5787.4093-.2595.1038-.5392.1539-.8206.147-.2643.0052-.527-.0415-.7716-.1372-.2206-.0879-.4189-.22-.5813-.3873-.1658-.1735-.2935-.3768-.3755-.598-.0899-.2466-.1343-.5061-.1312-.7671-.0037-.2627.0443-.5238.1414-.7696.0899-.2226.2254-.4259.3987-.5981.1757-.1687.3858-.3013.6173-.3897.2534-.0935.5231-.1401.7948-.1372.2524-.0059.5034.0367.7382.125.2038.0842.3908.2011.553.3456l-.1723.2304c-.0119.0162-.0267.0303-.0437.0416-.0203.0133-.0449.0194-.0695.0172-.0267-.0018-.0524-.0102-.0746-.0245l-.0925-.0613-.1287-.0784c-.0555-.0291-.1131-.0545-.1723-.076-.0763-.026-.1545-.0465-.2341-.0613-.1009-.0177-.2034-.0259-.306-.0245-.1957-.0023-.3898.0327-.5711.1029-.169.0651-.3215.1637-.4475.2893-.1283.1335-.2271.2902-.2907.4607-.0724.1951-.1081.4009-.1054.6079-.0031.2101.0326.4192.1054.6176.0628.1691.1598.3248.2856.4583.1178.1245.2638.2217.4269.2843.1679.0664.3481.0997.5299.0981.105.0015.2099-.005.3138-.0196.1696-.0198.3323-.0759.4758-.1642.072-.0453.14-.0961.2032-.152.0265-.024.0613-.038.0978-.0392zM77.2871 64.7108c.0032.2601-.0439.5184-.1389.7622-.0838.2211-.2159.4228-.3874.5918-.1716.169-.3788.3014-.608.3885-.5036.183-1.0603.183-1.5638 0-.2277-.0885-.4336-.2212-.6045-.3897-.1714-.172-.3045-.3754-.3909-.5979-.1853-.4937-.1853-1.0332 0-1.5269.0877-.2226.2205-.4266.3909-.6004.1723-.1632.3781-.2908.6045-.3749.5029-.1863 1.0609-.1863 1.5638 0 .2285.0884.4352.2211.607.3896.1694.1704.3014.3712.3884.5906.0953.2455.1424.5055.1389.7671zm-.5401 0c.004-.208-.029-.4152-.0978-.6127-.0576-.1691-.1513-.3252-.2752-.4582-.1206-.126-.2691-.2247-.4347-.2892-.3659-.134-.7709-.134-1.1369 0-.1656.0645-.314.1632-.4346.2892-.1256.1323-.2203.2885-.2778.4582-.1309.399-.1309.8265 0 1.2254.058.1696.1527.3257.2778.4583.1207.1252.2692.2231.4346.2867.3666.1306.7704.1306 1.1369 0 .1655-.0636.314-.1615.4347-.2867.1234-.1334.217-.2893.2752-.4583.0691-.1974.1021-.4046.0978-.6127zM81.3408 65.3532l.054.1372c.0206-.049.0386-.0931.0592-.1372.0196-.0461.0419-.0911.0669-.1348l1.3143-2.2764c.0258-.0392.0489-.0637.0746-.0711.035-.0101.0716-.0143.1081-.0122h.3883v3.7026h-.4604v-2.7225-.1151c-.0024-.0425-.0024-.085 0-.1275l-1.322 2.3084c-.0168.0345-.0437.0638-.0774.0842-.0338.0204-.073.0312-.113.0309h-.0746c-.04.0006-.0794-.01-.1132-.0305-.0338-.0205-.0606-.0499-.0771-.0846l-1.3607-2.3231v2.9724h-.4449v-3.6952h.3883c.0365-.0021.0731.0021.1081.0122.0319.0151.0573.0402.072.0711l1.3427 2.2789c.0263.0421.0487.0864.0668.1323zM86.2871 65.1692v1.387h-.5145v-3.6977h1.1472c.2166-.0039.4325.0233.6405.0809.1665.0449.3209.1235.4527.2303.1142.1002.2023.2243.2572.3627.0607.1508.0904.3114.0874.4729.0023.1622-.0301.3231-.0951.4729-.0619.1419-.1569.2684-.2778.37-.132.1113-.2871.1948-.4553.2451-.2002.0609-.4097.0899-.6199.0857l-.6224-.0098zm0-.3969h.6224c.1352.0016.2698-.0174.3987-.0564.1063-.0341.2043-.0882.2881-.1593.0773-.0678.1371-.1516.1749-.245.0421-.0988.0631-.2046.0617-.3112.006-.1028-.0116-.2056-.0516-.3012-.04-.0957-.1013-.1818-.1799-.2526-.1965-.1462-.4433-.217-.6919-.1985h-.6224v1.5242zM93.201 66.5612h-.4064c-.0408.0014-.0808-.0107-.1132-.0344-.0292-.023-.0521-.0524-.0669-.0857l-.3498-.8945H90.508l-.3627.8945c-.0133.0327-.0355.0614-.0643.0833-.0327.0251-.0738.0381-.1158.0368h-.4064l1.5433-3.703h.535l1.5639 3.703zm-2.5464-1.3749h1.4507l-.6122-1.5072c-.0468-.1133-.0855-.2296-.1158-.348l-.0591.1936c-.018.0589-.0386.1128-.0566.1569l-.607 1.5047zM95.4233 62.8754c.0308.0161.0572.0387.0772.0662l2.2506 2.7913v-.1299V62.8582h.4604v3.703h-.2572c-.0365.001-.0727-.0065-.1054-.0221-.0318-.0176-.0597-.0409-.0823-.0686l-2.2481-2.7888c.0025.0424.0025.0849 0 .1274v2.7521h-.4604v-3.703h.2727c.0318-.0008.0634.005.0925.0172zM102.003 65.0884v1.4704h-.515v-1.4704l-1.422-2.23h.46c.04-.0023.079.009.111.0318.028.0238.052.052.07.0833l.889 1.4386c.036.0612.067.1176.093.1715.026.0539.046.1054.064.1569l.067-.1593c.025-.0583.054-.1148.088-.1691l.877-1.4484c.018-.0289.041-.0553.067-.0784.03-.0254.07-.0386.11-.0367h.466l-1.425 2.2398zM81.0862 56.6443c.2238.0269.4501.049.679.0686 3.4706-1.4792 6.4066-3.9002 8.441-6.9603 2.0344-3.0602 3.077-6.6237 2.9974-10.2453l-3.8248-3.644c.7777 3.8558.4139 7.8417-1.0506 11.5118-1.4646 3.6701-3.9721 6.8795-7.242 9.2692z" fill="#AFB1B8"/><path d="M79.7204 56.4748l.1029.0196c3.4942-2.3812 6.1583-5.7064 7.6476-9.5456 1.4894-3.8391 1.7356-8.0157.7067-11.9896l-5.4478-5.1902c2.2035 4.2663 3.0904 9.0408 2.5577 13.7684-.5328 4.7276-2.4633 9.214-5.5671 12.9374zM98.1961 43.7861c-.9255 3.9793-3.1734 7.568-6.4098 10.2335-.9452.7827-1.9647 1.48-3.0454 2.0829 2.6354-.7379 5.0576-2.0427 7.08-3.8135 2.0224-1.7709 3.591-3.9606 4.5851-6.4003l-2.2099-2.1026z" fill="#AFB1B8"/><path d="M97.3293 43.2002l-3.1458-2.9971c-.0601 3.417-1.0797 6.7563-2.9528 9.6708-1.8731 2.9146-4.5313 5.2979-7.6984 6.9025h.0154c.7058-.0003 1.4109-.0404 2.1118-.1201 2.9598-1.151 5.5744-2.9821 7.6107-5.3301 2.0363-2.348 3.4308-5.1397 4.0591-8.126zM80.1757 27.5803L76.4229 24c-3.3548 1.2351-6.2401 3.4064-8.2783 6.2297-2.0381 2.8233-3.1341 6.1671-3.1446 9.5937.0126 3.7863 1.3502 7.4604 3.8012 10.4409 2.4509 2.9805 5.8752 5.0971 9.7309 6.0148 3.4419-3.9953 5.4571-8.9321 5.7526-14.0931.2956-5.161-1.1438-10.2774-4.109-14.6057zM106 42.649c-.014-4.4922-1.893-8.7968-5.227-11.9733-3.3339-3.1765-7.852-4.9667-12.5671-4.9796-2.1788-.0022-4.3391.3809-6.3712 1.1297l22.9773 21.8908c.786-1.9351 1.189-3.9925 1.188-6.0676z" fill="#AFB1B8"/></svg>