<svg width="170" height="90" fill="none" xmlns="http://www.w3.org/2000/svg">
<rect x=".5" y=".5" width="169" height="89" rx="3.5" stroke="#AFB1B8"/>
<path d="M57.402 36.8306h-.0027c-2.2624 0-4.0963 1.7871-4.0963 3.9917v.0026c0 2.2046 1.8339 3.9918 4.0963 3.9918h.0027c2.2623 0 4.0962-1.7872 4.0962-3.9918v-.0026c0-2.2046-1.8339-3.9917-4.0962-3.9917zM87.6367 35.5545c-.0064-3.0621-1.2573-5.997-3.4789-8.1624-2.2216-2.1655-5.2329-3.3851-8.3751-3.3921-3.1431.0056-6.1559 1.2246-8.3787 3.3902-2.2227 2.1656-3.4743 5.1013-3.4808 8.1643v16.8857s23.7108-2.5735 23.7135-16.8831v-.0026zM44.9999 57.9823c.0057 2.1306.8766 4.1724 2.4223 5.6792 1.5457 1.5068 3.6406 2.3562 5.8269 2.3624 2.1859-.0062 4.2804-.8552 5.826-2.3614 1.5457-1.5063 2.4169-3.5474 2.4233-5.6776V46.2356s-16.4985 1.792-16.4985 11.7467zm8.2492 2.1051c-.4272 0-.8449-.1234-1.2001-.3548-.3552-.2313-.6321-.56-.7956-.9447-.1635-.3847-.2063-.8079-.1229-1.2163.0833-.4084.2891-.7835.5912-1.0779.3021-.2944.687-.4949 1.106-.5761.419-.0812.8534-.0395 1.2481.1198.3947.1593.7321.4291.9695.7753.2373.3462.364.7532.364 1.1696.0011.2771-.054.5517-.1621.808-.1081.2563-.267.4893-.4677.6857-.2007.1963-.4392.352-.7018.4583s-.5442.161-.8286.161v-.0079zM70.0891 58.7812h-1.6875v1.7432h-.8789v-4.2656H70.3v.7119h-1.8984v1.1016h1.6875v.7089zm4.2246-.2929c0 .4199-.0742.7881-.2227 1.1045-.1484.3164-.3613.5605-.6386.7324-.2754.1719-.5918.2578-.9493.2578-.3535 0-.6689-.085-.9462-.2549-.2774-.1699-.4922-.4121-.6446-.7265-.1523-.3164-.2295-.6797-.2314-1.0899v-.2109c0-.4199.0752-.7891.2256-1.1074.1523-.3204.3662-.5655.6416-.7354.2773-.1719.5937-.2578.9492-.2578.3555 0 .6709.0859.9463.2578.2773.1699.4912.415.6416.7354.1523.3183.2285.6865.2285 1.1045v.1904zm-.8906-.1934c0-.4472-.0801-.7871-.2403-1.0195-.1601-.2324-.3886-.3486-.6855-.3486-.2949 0-.5225.1152-.6826.3457-.1602.2285-.2412.5644-.2432 1.0078v.208c0 .4355.0801.7734.2402 1.0137.1602.2402.3907.3603.6914.3603.295 0 .5215-.1152.6797-.3457.1582-.2324.2383-.5703.2403-1.0137v-.208zm3.7412 1.1104c0-.166-.0586-.293-.1758-.3809-.1172-.0898-.3281-.1836-.6328-.2812-.3047-.0996-.5459-.1973-.7237-.293-.4843-.2617-.7265-.6143-.7265-1.0576 0-.2305.0644-.4356.1933-.6153.1309-.1816.3174-.3232.5596-.4248.2442-.1015.5176-.1523.8203-.1523.3047 0 .5762.0557.8145.167.2383.1094.4228.2646.5537.4658.1328.2012.1992.4297.1992.6856h-.8789c0-.1954-.0615-.3467-.1846-.4541-.123-.1094-.2959-.1641-.5185-.1641-.2149 0-.3819.0459-.501.1377-.1191.0898-.1787.209-.1787.3574 0 .1387.0693.2549.208.3486.1406.0938.3467.1817.6182.2637.5.1504.8642.3369 1.0927.5596.2286.2226.3428.5.3428.832 0 .3692-.1396.6592-.4189.8701-.2793.209-.6553.3135-1.128.3135-.3281 0-.6269-.0596-.8964-.1787-.2696-.1211-.4756-.2861-.6182-.4951-.1406-.209-.2109-.4512-.2109-.7266h.8818c0 .4707.2812.7061.8437.7061.209 0 .3721-.042.4893-.126.1172-.0859.1758-.2051.1758-.3574zm4.6904-2.4346h-1.3066v3.5537h-.8789v-3.5537h-1.2891v-.7119h3.4746v.7119zm3.0703 1.7051h-1.6875v1.1426h1.9805v.706h-2.8594v-4.2656h2.8535v.7119h-1.9746v1.0166h1.6875v.6885zm2.3877.2871h-.7002v1.5615h-.8789v-4.2656h1.585c.5039 0 .8926.1123 1.166.3369.2734.2246.4101.542.4101.9522 0 .291-.0634.5341-.1904.7294-.125.1934-.3154.3477-.5713.4629l.9229 1.7432v.041h-.9434l-.7998-1.5615zm-.7002-.7119h.709c.2207 0 .3916-.0557.5127-.167.1211-.1133.1816-.2686.1816-.4658 0-.2012-.0576-.3594-.1728-.4746-.1133-.1153-.2881-.1729-.5244-.1729h-.7061v1.2803zm5.3262.7705v1.5029h-.8789v-4.2656h1.664c.3204 0 .6016.0586.8438.1758.2441.1172.4316.2842.5625.5009.1309.2149.1963.46.1963.7354 0 .418-.1436.748-.4307.9902-.2851.2403-.6806.3604-1.1865.3604h-.7705zm0-.7119h.7851c.2325 0 .4092-.0547.5303-.1641.1231-.1094.1846-.2656.1846-.4687 0-.209-.0615-.378-.1846-.5069-.123-.1289-.2929-.1953-.5097-.1992h-.8057v1.3389zm5.5605.3662h-1.6875v1.1426h1.9805v.706h-2.8594v-4.2656h2.8535v.7119h-1.9746v1.0166h1.6875v.6885zm4.0778-1.7051h-1.306v3.5537h-.8792v-3.5537h-1.289v-.7119h3.4742v.7119zm3.071 1.7051h-1.688v1.1426h1.981v.706h-2.86v-4.2656h2.854v.7119h-1.975v1.0166h1.688v.6885zm2.387.2871h-.7v1.5615h-.879v-4.2656h1.585c.504 0 .893.1123 1.166.3369.274.2246.41.542.41.9522 0 .291-.063.5341-.19.7294-.125.1934-.315.3477-.571.4629l.923 1.7432v.041h-.944l-.8-1.5615zm-.7-.7119h.709c.221 0 .392-.0557.513-.167.121-.1133.181-.2686.181-.4658 0-.2012-.057-.3594-.172-.4746-.114-.1153-.288-.1729-.525-.1729h-.706v1.2803zm5.165 1.1543c0-.166-.058-.293-.176-.3809-.117-.0898-.328-.1836-.632-.2812-.305-.0996-.546-.1973-.724-.293-.484-.2617-.727-.6143-.727-1.0576 0-.2305.065-.4356.194-.6153.131-.1816.317-.3232.559-.4248.244-.1015.518-.1523.821-.1523.304 0 .576.0557.814.167.238.1094.423.2646.554.4658.133.2012.199.4297.199.6856h-.879c0-.1954-.061-.3467-.184-.4541-.123-.1094-.296-.1641-.519-.1641-.215 0-.382.0459-.501.1377-.119.0898-.179.209-.179.3574 0 .1387.07.2549.208.3486.141.0938.347.1817.619.2637.5.1504.864.3369 1.092.5596.229.2226.343.5.343.832 0 .3692-.14.6592-.419.8701-.279.209-.655.3135-1.128.3135-.328 0-.627-.0596-.896-.1787-.27-.1211-.476-.2861-.618-.4951-.141-.209-.211-.4512-.211-.7266h.881c0 .4707.282.7061.844.7061.209 0 .372-.042.489-.126.118-.0859.176-.2051.176-.3574z" 
fill="#AFB1B8"/></svg>