<svg aria-hidden="true" style="position:absolute;width:0;height:0" xmlns="http://www.w3.org/2000/svg" overflow="hidden"><defs><symbol id="menu" viewBox="0 0 48 32"><path d="M0 5.334V0h48v5.334H0zm0 13.332h48v-5.332H0v5.332zM0 32h48v-5.334H0V32z"/></symbol><symbol id="mail" viewBox="0 0 32 32"><path fill="var(--color1, #757575)" d="M29 4H3C1.346 4 0 5.346 0 7v18c0 1.654 1.346 3 3 3h26c1.654 0 3-1.346 3-3V7c0-1.654-1.346-3-3-3zm0 2c.136 0 .265.028.383.077L16 17.676 2.617 6.077A.996.996 0 013 6h26zm0 20H3a1 1 0 01-1-1V8.19l13.345 11.565a.998.998 0 001.31 0L30 8.19V25a1 1 0 01-1 1z"/></symbol><symbol id="tel" viewBox="0 0 32 32"><path fill="var(--color1, #757575)" d="M23 0H9C7.346 0 6 1.346 6 3v26c0 1.654 1.346 3 3 3h14c1.654 0 3-1.346 3-3V3c0-1.654-1.346-3-3-3zM9 2h14a1 1 0 011 1v21H8V3a1 1 0 011-1zm14 28H9a1 1 0 01-1-1v-3h16v3a1 1 0 01-1 1z"/><path fill="var(--color1, #757575)" d="M10.707 27.478c.391.365.391.956 0 1.321s-1.024.365-1.414 0c-.391-.365-.391-.956 0-1.321s1.024-.365 1.414 0z"/></symbol><symbol id="close-icon" viewBox="0 0 32 32"><path d="M32 3.223L28.777 0 16 12.777 3.223 0 0 3.223 12.777 16 0 28.777 3.223 32 16 19.223 28.777 32 32 28.777 19.223 16 32 3.223z"/></symbol><symbol id="name-icon" viewBox="0 0 32 32"><path d="M16 16a8 8 0 000-16 8 8 0 000 16zm0 4c-5.339 0-16 2.68-16 8v2c0 1.099.901 2 2 2h28c1.099 0 2-.901 2-2v-2c0-5.32-10.661-8-16-8z"/></symbol><symbol id="tel-form" viewBox="0 0 32 32"><path d="M27.419 20.853l-4.201-.48a3.28 3.28 0 00-2.713.941l-3.045 3.045c-4.718-2.435-8.467-6.185-10.835-10.764l-.065-.139L9.623 10.4a3.281 3.281 0 00.94-2.729l.002.016-.48-4.169A3.314 3.314 0 006.798.592H3.933C2.063.587.509 2.142.623 4.009c.878 14.126 12.176 25.408 26.286 26.286 1.867.114 3.424-1.44 3.424-3.31v-2.862-.016a3.279 3.279 0 00-2.897-3.256l-.015-.001z"/></symbol><symbol id="mail-form" viewBox="0 0 32 32"><path d="M28 4H4a2.997 2.997 0 00-2.986 3L1 25c0 1.65 1.35 3 3 3h24c1.65 0 3-1.35 3-3V7c0-1.65-1.35-3-3-3zm-.6 6.376l-10.604 6.628c-.226.141-.501.225-.795.225s-.569-.084-.801-.229l.006.004L4.6 10.374a1.275 1.275 0 111.354-2.157l-.005-.003 10.05 6.286 10.05-6.286a1.274 1.274 0 111.356 2.157l-.006.003z"/></symbol><symbol id="chek-icon" viewBox="0 0 32 32"><path fill="var(--color2, #fff)" stroke="var(--color2, #fff)" stroke-width=".492" d="M4.817 15.39l-.17-.162-.17.16-2.373 2.25.187.18 8.775 8.369.17-.162L29.894 8.226l-.187-.177-2.341-2.233-.17.162-16.13 15.375-6.25-5.962z"/></symbol><symbol id="antena" viewBox="0 0 32 32"><path fill="var(--color3, #212121)" d="M30.773 22.098l-8.443-8.505.937-4.615c.242.094.499.144.758.146h.006a2.159 2.159 0 10-2.008-1.435l-4.96.605L8.972.161a.534.534 0 00-.377-.16.532.532 0 00-.373.155L6.709 1.66a.534.534 0 000 .754l.814.826a14.943 14.943 0 002.519 17.663.513.513 0 00.146.098c-.034.18-.051.364-.052.547v6.187h-6.4a2.67 2.67 0 00-2.667 2.667v1.067c0 .295.239.533.533.533h24.533a.533.533 0 00.533-.533v-1.067a2.67 2.67 0 00-2.667-2.667h-6.4v-2.742a15.09 15.09 0 003.049.32 14.854 14.854 0 007.04-1.783l.818.823a.534.534 0 00.377.16.532.532 0 00.373-.155l1.512-1.504a.534.534 0 000-.754zM23.28 6.233a1.066 1.066 0 11.752 1.822h-.003a1.067 1.067 0 01-.747-1.823h-.002zm-1.256 3.505l-.598 2.946-1.175-1.182 1.774-1.763zm-.606-.902l-1.92 1.909-1.485-1.493 3.405-.415zM24.004 28.8a1.6 1.6 0 011.6 1.6v.533H2.137V30.4a1.6 1.6 0 011.6-1.6h20.267zm-7.467-2.133v1.067h-5.333v-1.067h5.333zM11.204 25.6v-4.053c0-1.294 1.196-2.347 2.667-2.347s2.667 1.053 2.667 2.347V25.6h-5.333zm6.4-1.696v-2.357c0-1.882-1.675-3.413-3.733-3.413a3.8 3.8 0 00-3.281 1.786A13.87 13.87 0 018.311 4.033l18.602 18.708a13.818 13.818 0 01-9.309 1.163zm11.289-.684L7.836 2.039l.755-.752 7.935 7.98c.004 0 .006.007.01.01l13.115 13.191-.757.752z"/><path fill="var(--color4, #2196f3)" d="M13.876 20.267h-.005a1.6 1.6 0 10-.004 3.2h.005a1.6 1.6 0 10.004-3.2zm.373 1.978a.533.533 0 11-.378-.911.534.534 0 01.374.911h.005z"/></symbol><symbol id="clock" viewBox="0 0 32 32"><path fill="var(--color3, #212121)" d="M31.297 15.301C31.295 6.849 24.442-.002 15.989 0S.686 6.855.688 15.308a15.304 15.304 0 0010.649 14.576.668.668 0 00.53-.065.637.637 0 00.283-.356l3.865-12.25a1.912 1.912 0 10-.84-3.635l-5.106-5.107a.637.637 0 00-.902.902l5.103 5.109a1.876 1.876 0 00.536 2.309l-3.683 11.673C3.845 25.783.119 17.71 2.8 10.432S13.554-.572 20.832 2.109c7.278 2.681 11.004 10.754 8.324 18.032a14.042 14.042 0 01-7.462 7.973l-.398-1.874a.638.638 0 00-1.048-.344l-3.837 3.426a.637.637 0 00.231 1.084l4.899 1.563a.638.638 0 00.819-.74l-.391-1.839a15.255 15.255 0 009.329-14.089zm-15.305-.637a.638.638 0 110 1.277.638.638 0 010-1.277zm2.101 14.864l2.184-1.948.603 2.84-2.787-.892z"/><path fill="var(--color4, #2196f3)" d="M15.354 3.185V4.46a.638.638 0 101.276 0V3.185a.638.638 0 00-1.276 0zM3.876 14.664a.638.638 0 000 1.276h1.275a.638.638 0 100-1.276H3.876zm24.232 1.275a.638.638 0 100-1.276h-1.275a.638.638 0 000 1.276h1.275z"/></symbol><symbol id="diagram" viewBox="0 0 32 32"><path fill="var(--color4, #2196f3)" d="M14.926 14.965h1.066v4.798h-1.066v-4.797zm4.264 2.132h1.066v2.665H19.19v-2.665zm-8.529 1.599h1.066v1.066h-1.066v-1.066zm-3.198-.533h1.066v1.599H7.463v-1.599z"/><path fill="var(--color3, #212121)" d="M1.599 28.291h25.587a1.6 1.6 0 001.599-1.599V24.56a1.6 1.6 0 00-1.599-1.599h-.533V9.668L29.681 6.8a1.608 1.608 0 10-.746-.763L26.654 8.2V6.97a1.6 1.6 0 00-1.599-1.599H3.733A1.6 1.6 0 002.134 6.97v15.992h-.533a1.6 1.6 0 00-1.599 1.599v2.132a1.6 1.6 0 001.599 1.599zM30.384 4.837a.533.533 0 110 1.067.533.533 0 010-1.067zM3.198 6.969c0-.294.239-.533.533-.533h21.322c.294 0 .533.239.533.533v2.239l-1.066 1.013V8.035a.533.533 0 00-.533-.533H4.797a.533.533 0 00-.533.533v13.326c0 .294.239.533.533.533h19.19a.533.533 0 00.533-.533v-9.674l1.066-1.01v12.284H3.198V6.969zm4.798 6.93a1.598 1.598 0 101.107 2.749l1.853.93a.532.532 0 00.636-.123l3.939-4.431 3.872 2.901a.533.533 0 00.686-.039l3.365-3.188v8.131H5.33V8.569h18.124v2.66l-3.771 3.572-3.904-2.927a.533.533 0 00-.718.072l-3.993 4.493-1.493-.746c.011-.064.018-.129.02-.193a1.6 1.6 0 00-1.599-1.599zm.533 1.599a.533.533 0 11-1.067 0 .533.533 0 011.067 0zm3.198 8.528h5.331v.533a.533.533 0 01-.533.533h-4.264a.533.533 0 01-.533-.533v-.533zm-10.661.534c0-.294.239-.533.533-.533h9.062v.533a1.6 1.6 0 001.599 1.599h4.264a1.6 1.6 0 001.599-1.599v-.533h9.062c.294 0 .533.239.533.533v2.132a.533.533 0 01-.533.533H1.598a.533.533 0 01-.533-.533V24.56z"/></symbol><symbol id="astronaut" viewBox="0 0 32 32"><path fill="var(--color4, #2196f3)" d="M31.974 4.524a.534.534 0 00-.43-.363l-1.91-.278-.855-1.731c-.179-.365-.777-.365-.956 0l-.855 1.731-1.91.278a.535.535 0 00-.296.91l1.383 1.348-.326 1.903c-.034.2.048.402.212.522a.53.53 0 00.562.04l1.709-.899 1.709.899a.536.536 0 00.775-.563l-.326-1.903 1.383-1.348a.536.536 0 00.135-.547zm-2.463 1.327a.534.534 0 00-.153.472l.191 1.114-1-.526a.533.533 0 00-.498 0l-1.001.526.191-1.114a.534.534 0 00-.153-.472l-.81-.789 1.119-.163a.532.532 0 00.402-.292l.5-1.013.5 1.013a.535.535 0 00.402.292l1.119.163-.809.789zm-3.377 14.671h-1.067v1.067h1.067v-1.067zm0 2.134h-1.067v1.067h1.067v-1.067zm1.066-1.067h-1.067v1.067H27.2v-1.067zm-2.133 0H24v1.067h1.067v-1.067zm-2.667 4.8h-1.067v1.067H22.4v-1.067zm0 2.133h-1.067v1.067H22.4v-1.067zm1.067-1.066H22.4v1.067h1.067v-1.067zm-2.134 0h-1.067v1.067h1.067v-1.067zM16 24.256h-1.067v1.067H16v-1.067zm0 2.133h-1.067v1.067H16v-1.067zm1.067-1.067H16v1.067h1.067v-1.067zm-2.134 0h-1.067v1.067h1.067v-1.067zm-9.066-19.2H4.8v1.067h1.067V6.122zm0 2.133H4.8v1.067h1.067V8.255zm1.066-1.066H5.866v1.067h1.067V7.189zm-2.133 0H3.733v1.067H4.8V7.189z"/><path fill="var(--color3, #212121)" d="M24.715 14.159a1.775 1.775 0 00-1.188-.705 1.778 1.778 0 00-1.34.352l-1.252.96-1.898 1.417-1.358-.541c2.421-1.086 4.114-3.508 4.114-6.32 0-3.823-3.123-6.933-6.961-6.933s-6.961 3.11-6.961 6.933a6.86 6.86 0 001.12 3.758l-2.769-.024c-.009 0-.015.004-.023.005a.515.515 0 00-.155.031l-.038.013c-.006.003-.013.003-.019.006l-3.233 1.596-.001.001-1.893.911a.397.397 0 00-.063.035 1.779 1.779 0 00-.598 2.295c.22.429.595.745 1.056.889a1.776 1.776 0 001.378-.128l1.388-.738 2.264-1.169 1.357-.008L2.2 22.211l-.002.001-1.339 1.333c-.316.315-.49.732-.49 1.178s.174.863.49 1.179c.325.323.752.485 1.179.485s.854-.162 1.18-.485l1.314-1.309 1.741-1.3.901.897-1.762 1.754-.002.001-1.339 1.333c-.316.315-.49.732-.49 1.178s.174.863.49 1.179c.325.323.753.485 1.18.485s.855-.162 1.18-.485l3.482-3.467.001-.002 1.01-1-.004-.004c.006-.006.015-.009.022-.015l5.166-5.658 3.471.494a.52.52 0 00.262-.033c.018-.006.033-.015.05-.023.019-.01.039-.015.058-.027l3.213-2.133c.012-.008.018-.021.029-.029.013-.01.029-.014.041-.026l1.271-1.191c.662-.62.753-1.635.212-2.362zM2.13 17.77a.714.714 0 01-.558.052.717.717 0 01-.213-1.26l1.314-.632.449 1.313-.992.527zm3.498-1.828l-1.548.8-.439-1.283 2.027-1.001-.04 1.484zm15.099-6.62a5.79 5.79 0 01-.599 2.559l-4.181-1.899a1.863 1.863 0 00-.788-1.388l1.464-4.86c2.378.756 4.105 2.974 4.105 5.588zm-11.789 0c0-3.235 2.644-5.867 5.894-5.867.253 0 .5.021.745.052l-1.432 4.754c-.019-.001-.037-.006-.057-.006-1.033 0-1.873.837-1.873 1.867s.84 1.867 1.873 1.867c.694 0 1.294-.383 1.618-.945l3.862 1.755a5.894 5.894 0 01-4.737 2.39c-3.25 0-5.894-2.632-5.894-5.867zm5.956.8c0 .441-.362.8-.806.8s-.806-.359-.806-.8c0-.441.362-.8.806-.8s.806.359.806.8zM2.465 25.146a.608.608 0 01-.854.001.592.592 0 010-.844l.962-.959.851.848-.959.955zm3.214 3.734a.608.608 0 01-.855.001.592.592 0 010-.844l.963-.959.852.848-.96.955zm3.481-3.469l-.002.001-1.765 1.76-.852-.848 1.763-1.756.002-.001c.04-.04.065-.088.09-.135.007-.014.02-.026.026-.04.017-.041.019-.085.026-.129.003-.025.014-.047.014-.073 0-.036-.013-.07-.02-.106-.006-.032-.006-.065-.019-.095a.55.55 0 00-.091-.138c-.01-.012-.014-.027-.025-.038h-.001l-.001-.002-1.607-1.6c-.017-.017-.039-.024-.058-.038a.507.507 0 00-.087-.058.515.515 0 00-.093-.033.507.507 0 00-.103-.02.5.5 0 00-.095.005.53.53 0 00-.104.02.477.477 0 00-.094.045c-.02.011-.042.015-.061.029L4.23 23.485l-.901-.897 2.399-2.386 4.361 4.289-.928.919zm6.819-7.017c-.015-.002-.03.004-.045.003a.556.556 0 00-.3.075.492.492 0 00-.083.061c-.013.011-.028.017-.04.029l-4.698 5.146-4.328-4.257 2.833-2.818a.534.534 0 00-.379-.911v-.001l-2.219.013.028-1.607 3.104.027a6.947 6.947 0 004.981 2.101c.437 0 .864-.045 1.279-.123.04.032.079.065.13.085l2.41.96.152.758.178.885-3.003-.427zm4.041.178l-.313-1.558 1.446-1.08.947 1.257-2.08 1.381zm3.754-2.831l-.838.785-.931-1.236.831-.637a.735.735 0 01.543-.143.718.718 0 01.48.284.713.713 0 01-.085.947z"/><path fill="var(--color3, #212121)" d="M13.602 18.544l-2.143-2.133a.534.534 0 00-.753 0l-2.142 2.133a.537.537 0 000 .756l2.142 2.133a.536.536 0 00.753 0l2.143-2.133a.535.535 0 000-.756zm-2.519 1.759l-1.387-1.381 1.387-1.381 1.387 1.381-1.387 1.381zm6.081-15.232l-.258 1.036c.071.018 1.738.452 1.738 2.149h1.067c0-2.017-1.666-2.965-2.547-3.185zm2.547 4.251h-1.067v1.067h1.067V9.322z"/></symbol><symbol id="insta" viewBox="0 0 32 32"><path fill="var(--color5, #afb1b8)" d="M31.969 9.408c-.075-1.7-.35-2.869-.744-3.882a7.803 7.803 0 00-1.85-2.838A7.867 7.867 0 0026.543.844C25.524.45 24.361.175 22.661.1 20.948.019 20.404 0 16.06 0s-4.888.019-6.595.094c-1.7.075-2.869.35-3.882.744a7.803 7.803 0 00-2.838 1.85A7.867 7.867 0 00.901 5.52C.507 6.539.232 7.702.157 9.402c-.081 1.713-.1 2.257-.1 6.601s.019 4.888.094 6.595c.075 1.7.35 2.869.744 3.882a7.895 7.895 0 001.85 2.838 7.867 7.867 0 002.832 1.844c1.019.394 2.182.669 3.882.744 1.706.075 2.25.094 6.595.094s4.888-.019 6.595-.094c1.7-.075 2.869-.35 3.882-.744a8.184 8.184 0 004.682-4.682c.394-1.019.669-2.182.744-3.882.075-1.707.094-2.251.094-6.595s-.006-4.888-.081-6.595zm-2.882 13.065c-.069 1.563-.331 2.407-.55 2.969a5.31 5.31 0 01-3.038 3.038c-.563.219-1.413.481-2.969.55-1.688.075-2.194.094-6.464.094s-4.782-.019-6.464-.094c-1.563-.069-2.407-.331-2.969-.55a4.926 4.926 0 01-1.838-1.194 4.974 4.974 0 01-1.194-1.838c-.219-.563-.481-1.413-.55-2.969-.075-1.688-.094-2.194-.094-6.464s.019-4.782.094-6.464c.069-1.563.331-2.407.55-2.969a4.868 4.868 0 011.2-1.838A4.974 4.974 0 016.639 3.55c.563-.219 1.413-.481 2.969-.55 1.688-.075 2.194-.094 6.464-.094 4.276 0 4.782.019 6.464.094 1.563.069 2.407.331 2.969.55a4.914 4.914 0 011.838 1.194 4.974 4.974 0 011.194 1.838c.219.563.481 1.413.55 2.969.075 1.688.094 2.194.094 6.464s-.019 4.77-.094 6.458z"/><path fill="var(--color5, #afb1b8)" d="M16.059 7.783c-4.538 0-8.22 3.682-8.22 8.22s3.682 8.22 8.22 8.22 8.22-3.682 8.22-8.22-3.682-8.22-8.22-8.22zm0 13.552a5.333 5.333 0 010-10.664 5.333 5.333 0 010 10.664zM26.524 7.458a1.919 1.919 0 11-3.838 0 1.919 1.919 0 013.838 0z"/></symbol><symbol id="tw" viewBox="0 0 32 32"><path fill="var(--color5, #afb1b8)" d="M32 6.078c-1.19.522-2.458.868-3.78 1.036a6.523 6.523 0 002.886-3.626 13.11 13.11 0 01-4.16 1.588A6.574 6.574 0 0022.154 3c-3.632 0-6.556 2.948-6.556 6.562 0 .52.044 1.02.152 1.496-5.454-.266-10.28-2.88-13.522-6.862a6.605 6.605 0 00-.898 3.316 6.57 6.57 0 002.914 5.452 6.479 6.479 0 01-2.964-.808v.072c0 3.188 2.274 5.836 5.256 6.446a6.548 6.548 0 01-1.72.216 5.8 5.8 0 01-1.242-.112c.85 2.598 3.262 4.508 6.13 4.57a13.182 13.182 0 01-8.134 2.798c-.538 0-1.054-.024-1.57-.09A18.469 18.469 0 0010.064 29c12.072 0 18.672-10 18.672-18.668 0-.29-.01-.57-.024-.848A13.087 13.087 0 0032 6.078z"/></symbol><symbol id="fb" viewBox="0 0 32 32"><path fill="var(--color5, #afb1b8)" d="M21.329 5.313h2.921V.225C23.746.156 22.013 0 19.994 0c-4.212 0-7.097 2.649-7.097 7.519V12H8.249v5.688h4.648V32h5.699V17.689h4.46l.708-5.688h-5.169V8.082c.001-1.644.444-2.769 2.735-2.769z"/></symbol><symbol id="in" viewBox="0 0 32 32"><path fill="var(--color5, #afb1b8)" d="M31.992 32v-.001H32V20.263c0-5.741-1.236-10.164-7.948-10.164-3.227 0-5.392 1.771-6.276 3.449h-.093v-2.913h-6.364v21.364h6.627V21.42c0-2.785.528-5.479 3.977-5.479 3.399 0 3.449 3.179 3.449 5.657v10.401h6.62zM.528 10.636h6.635V32H.528V10.636zM3.843 0C1.722 0 0 1.721 0 3.843s1.721 3.879 3.843 3.879c2.121 0 3.843-1.757 3.843-3.879A3.846 3.846 0 003.843 0z"/></symbol><symbol id="client1" viewBox="0 0 32 32"><path fill="var(--color5, #afb1b8)" d="M12.988 11.294l1.376 1.302h3.837v3.633l1.376 1.302v-6.237h-6.588z"/><path fill="var(--color5, #afb1b8)" d="M11.859 12.541V18.6h6.4v-2.408l-3.854-3.649-2.546-.002zm5.181 5.173h-4.168v-4.075h.295v3.799h3.873v.276zm-3.338 2.01l.154-.317h.129l-.224.423v.246h-.117v-.246l-.225-.423h.129l.154.317zm.661.196h-.259l-.054.156h-.121l.253-.669h.104l.253.669h-.121l-.055-.156zm-.227-.094h.194l-.097-.278-.097.278zm.685.069c0-.031.008-.059.025-.085s.05-.057.1-.092c-.026-.033-.044-.061-.055-.084s-.015-.045-.015-.067c0-.052.016-.094.048-.124s.075-.046.129-.046c.049 0 .089.014.12.043s.047.064.047.106c0 .028-.007.054-.021.077s-.037.047-.069.07l-.046.033.129.153a.265.265 0 00.028-.123h.097c0 .082-.019.15-.058.203l.098.116h-.13l-.038-.045c-.048.036-.105.054-.171.054s-.119-.017-.159-.052a.173.173 0 01-.059-.137zm.221.101a.172.172 0 00.106-.038l-.146-.172-.014.01c-.037.028-.055.06-.055.096 0 .031.01.056.03.075s.047.029.08.029zm-.061-.431c0 .026.016.058.047.097l.051-.035.014-.012a.082.082 0 00.028-.065c0-.017-.007-.032-.02-.045s-.03-.019-.05-.019c-.022 0-.039.007-.052.022s-.019.033-.019.056zm1.215.293c-.007.071-.033.127-.079.167s-.107.06-.183.06c-.053 0-.1-.013-.141-.038s-.072-.061-.094-.108-.034-.101-.034-.162v-.063c0-.063.011-.119.034-.167a.255.255 0 01.241-.15c.074 0 .133.02.178.06s.071.097.079.17h-.116c-.006-.048-.02-.083-.042-.104s-.055-.032-.099-.032c-.051 0-.089.019-.117.056s-.041.091-.041.162v.059c0 .072.013.127.039.165s.064.057.114.057c.046 0 .08-.01.103-.031s.038-.055.044-.102h.116zm.639-.099c0 .066-.011.123-.034.173s-.055.087-.097.114c-.042.026-.09.04-.145.04a.261.261 0 01-.243-.154.4.4 0 01-.035-.17v-.038c0-.065.011-.123.034-.173a.256.256 0 01.243-.154.259.259 0 01.243.153.398.398 0 01.035.171v.037zm-.117-.035c0-.074-.014-.131-.042-.171s-.068-.059-.119-.059c-.05 0-.09.02-.118.059s-.043.095-.043.167v.039c0 .074.014.13.043.171s.069.06.119.06c.051 0 .091-.02.119-.059s.042-.096.042-.172v-.035z"/></symbol><symbol id="client2" viewBox="0 0 32 32"><path fill="var(--color5, #afb1b8)" d="M15.431 11.658h.026c.048 0 .099.005.15.009.225.016.447.049.667.101v-.539a4.008 4.008 0 00-.688-.11 4.808 4.808 0 00-.278-.013h-.081c-.466.002-.93.062-1.381.178a5.592 5.592 0 00-1.465.596v5.345a6.118 6.118 0 012.569-.724h.016c.066-.003.132-.005.2-.006v-.548a6.53 6.53 0 00-2.054.359l-.19.065v-4.168l.081-.039a5.314 5.314 0 011.979-.505h.017c.076-.004.152-.006.227-.006h.086l.119.004z"/><path fill="var(--color5, #afb1b8)" d="M16.774 12.223a4.957 4.957 0 01-.798-.064 4.566 4.566 0 01-.249-.05v5.284c.343.085.695.126 1.048.123.466-.002.93-.062 1.381-.178a5.599 5.599 0 001.466-.596v-5.25a6.04 6.04 0 01-2.848.731zm2.113.091l.191-.064v4.169l-.081.039a5.192 5.192 0 01-.974.35 5.04 5.04 0 01-1.246.161c-.126 0-.25-.005-.371-.016l-.13-.011v-4.287l.152.01c.11.007.225.011.349.011a6.444 6.444 0 002.111-.361zm-6.136 6.738a.285.285 0 00-.212-.085.298.298 0 00-.217.086.262.262 0 00-.061.096.32.32 0 00-.022.118v.714c-.002.05.008.1.028.146a.293.293 0 00.071.096.263.263 0 00.098.051.39.39 0 00.107.015.3.3 0 00.295-.301v-.08h-.187v.064a.157.157 0 01-.011.064.109.109 0 01-.027.04.147.147 0 01-.039.021.178.178 0 01-.039.007c-.017.002-.034-.001-.049-.007s-.029-.017-.039-.031a.17.17 0 01-.025-.096v-.666a.232.232 0 01.023-.107c.01-.015.023-.027.04-.035s.034-.011.052-.008c.016-.001.032.003.047.01s.027.017.037.03a.15.15 0 01.031.096v.062h.185v-.073a.334.334 0 00-.085-.226zm1.109-.008a.332.332 0 00-.323-.058.284.284 0 00-.171.158.33.33 0 00-.027.138v.685a.336.336 0 00.027.14c.017.037.042.07.072.096.029.026.062.047.099.06a.33.33 0 00.222 0c.037-.014.071-.034.101-.06s.054-.059.07-.096a.336.336 0 00.027-.14v-.685a.324.324 0 00-.097-.238zm-.088.923c.002.018-.001.037-.007.054s-.017.033-.03.045a.136.136 0 01-.176 0c-.013-.013-.023-.028-.03-.045s-.009-.036-.007-.054v-.685c-.002-.018.001-.037.007-.054s.017-.033.03-.045a.136.136 0 01.176 0c.013.013.023.028.03.045s.009.036.007.054v.685zm1.544.306v-1.297h-.18l-.236.686h-.003l-.238-.686h-.178v1.297h.185v-.789h.003l.181.558h.092l.183-.558h.003v.789h.185zm1.053-1.206a.268.268 0 00-.105-.071.407.407 0 00-.134-.02h-.275v1.297h.185v-.506h.095a.344.344 0 00.167-.035.267.267 0 00.101-.099.31.31 0 00.042-.113.908.908 0 00.01-.147.718.718 0 00-.018-.185.273.273 0 00-.068-.119zm-.096.395a.17.17 0 01-.017.067.1.1 0 01-.048.045.185.185 0 01-.087.016h-.084v-.441h.095a.181.181 0 01.083.016.105.105 0 01.043.048.18.18 0 01.016.072v.086c0 .03.002.061 0 .089h-.002zm.971-.486h-.151l-.286 1.297h.185l.054-.279h.252l.054.279h.185l-.293-1.297zm-.171.842l.091-.47h.003l.09.47h-.185zm1.365-.061h-.003l-.279-.781h-.178v1.297h.185v-.78h.004l.282.78h.174v-1.297h-.185v.781zm1.129-.781l-.149.516h-.004l-.149-.516h-.196l.254.749v.548h.185v-.548l.254-.749h-.196zm-7.332 1.663h.089v.25h.06v-.25h.089v-.051h-.238v.051zm.749-.051l-.117.301h.064l.025-.068h.12l.026.068h.066l-.12-.301h-.064zm-.01.182l.041-.112.041.112h-.082zm.75.008h.07v.039a.114.114 0 01-.071.025.076.076 0 01-.063-.029.122.122 0 01-.022-.078c0-.067.029-.101.087-.101.015-.002.03.003.043.011s.021.022.025.037l.06-.011c-.013-.059-.055-.089-.128-.089a.15.15 0 00-.105.039.149.149 0 00-.043.116.161.161 0 00.039.113c.015.015.033.027.052.035s.041.011.062.009a.184.184 0 00.128-.048v-.119h-.13v.051zm.756-.19h-.061v.301h.211v-.051h-.15v-.25zm.639 0h-.061v.301h.061v-.301zm.624.201l-.123-.201h-.059v.301h.057v-.197l.121.197h.06v-.301h-.056v.201zm.565-.033h.15v-.051h-.15v-.066h.161v-.051h-.222v.301h.229v-.051h-.168v-.081zm1.37-.05h-.119v-.119h-.06v.301h.06v-.132h.119v.132h.06v-.301h-.06v.119zm.568.05h.15v-.051h-.15v-.066h.162v-.051h-.222v.301h.228v-.051h-.168v-.081zm.77 0c.053-.008.079-.036.079-.084.002-.013 0-.026-.006-.038s-.013-.022-.024-.029a.168.168 0 00-.088-.018h-.128v.301h.061v-.126h.012a.083.083 0 01.038.007.056.056 0 01.021.022l.066.096h.072l-.037-.059a.201.201 0 00-.067-.072zm-.061-.041h-.045v-.076h.048a.155.155 0 01.061.007c.004.004.008.009.01.014s.003.011.003.017c0 .006-.002.012-.005.017s-.007.01-.011.013a.162.162 0 01-.062.007zm.642.041h.15v-.051h-.15v-.066h.162v-.051h-.223v.301h.229v-.051h-.168v-.081z"/></symbol><symbol id="client3" viewBox="0 0 32 32"><path fill="var(--color5, #afb1b8)" d="M13.43 19.914l.008.002a.03.03 0 01.007.005l.039.041a.313.313 0 01-.109.077.386.386 0 01-.154.028.376.376 0 01-.145-.026.303.303 0 01-.109-.073.343.343 0 01-.071-.113.416.416 0 01.002-.289.321.321 0 01.191-.186.423.423 0 01.289-.002.372.372 0 01.104.065l-.032.043-.008.008a.018.018 0 01-.013.003.024.024 0 01-.014-.005l-.017-.012-.024-.015a.309.309 0 00-.076-.026.298.298 0 00-.165.014.238.238 0 00-.139.141.319.319 0 00-.02.114.305.305 0 00.02.116.25.25 0 00.054.086c.022.023.05.042.08.053s.066.019.1.018c.02 0 .04-.001.059-.004a.22.22 0 00.128-.06.026.026 0 01.018-.007zm1.118-.204a.366.366 0 01-.026.143c-.016.042-.041.08-.073.111s-.071.057-.114.073a.436.436 0 01-.294 0 .33.33 0 01-.188-.186.405.405 0 010-.287.335.335 0 01.074-.113.328.328 0 01.114-.071.425.425 0 01.294 0 .315.315 0 01.187.184.375.375 0 01.026.144zm-.101 0a.322.322 0 00-.018-.115.231.231 0 00-.134-.14.315.315 0 00-.214 0 .231.231 0 00-.134.14.365.365 0 000 .231.226.226 0 00.134.14.315.315 0 00.214 0 .226.226 0 00.134-.14.322.322 0 00.018-.115zm.864.121l.01.026.011-.026.013-.025.247-.428c.005-.007.009-.012.014-.013a.046.046 0 01.02-.002h.073v.697h-.087v-.534-.024l-.249.435c-.003.006-.008.012-.015.016s-.014.006-.021.006h-.014c-.008 0-.015-.002-.021-.006s-.011-.009-.014-.016l-.256-.437v.559h-.084v-.696h.073c.007 0 .014 0 .02.002s.011.008.014.013l.253.429a.196.196 0 01.013.025zm.931-.034v.261h-.097v-.696h.216a.414.414 0 01.121.015c.031.008.06.023.085.043a.18.18 0 01.048.068.226.226 0 01.016.089.2.2 0 01-.07.159.231.231 0 01-.086.046.385.385 0 01-.117.016l-.117-.002zm0-.075h.117a.24.24 0 00.075-.011.16.16 0 00.054-.03.123.123 0 00.033-.046.148.148 0 00.012-.059c.001-.019-.002-.039-.01-.057s-.019-.034-.034-.048a.188.188 0 00-.13-.037h-.117v.287zm1.302.337h-.076c-.008 0-.015-.002-.021-.006s-.01-.01-.013-.016l-.066-.168h-.331l-.068.168c-.003.006-.007.012-.012.016s-.014.007-.022.007h-.076l.291-.697h.101l.294.697zm-.48-.259h.273l-.115-.284a.464.464 0 01-.022-.066l-.011.036a.21.21 0 01-.011.03l-.114.283zm.898-.435a.044.044 0 01.015.012l.424.525v-.541h.087v.697h-.048c-.007 0-.014-.001-.02-.004s-.011-.008-.015-.013l-.423-.525v.542h-.087v-.697h.051c.006 0 .012.001.017.003zm1.239.416v.277h-.097v-.277l-.268-.42h.087c.008 0 .015.002.021.006s.01.01.013.016l.167.271c.007.012.013.022.017.032l.012.03.013-.03c.005-.011.01-.022.017-.032l.165-.273c.003-.005.008-.01.013-.015s.013-.007.021-.007h.088l-.268.422zm-3.938-1.589l.128.013c.653-.278 1.206-.734 1.589-1.31s.579-1.247.564-1.929l-.72-.686c.146.726.078 1.476-.198 2.167s-.748 1.295-1.363 1.745z"/><path fill="var(--color5, #afb1b8)" d="M15.006 18.16l.019.004c.658-.448 1.159-1.074 1.44-1.797s.327-1.509.133-2.257l-1.025-.977c.415.803.582 1.702.481 2.592s-.464 1.734-1.048 2.435zm3.478-2.389a3.53 3.53 0 01-1.207 1.926c-.178.147-.37.279-.573.392.496-.139.952-.384 1.333-.718s.676-.746.863-1.205l-.416-.396z"/><path fill="var(--color5, #afb1b8)" d="M18.321 15.661l-.592-.564c-.011.643-.203 1.272-.556 1.82s-.853.997-1.449 1.299h.003c.133 0 .266-.008.398-.023.557-.217 1.049-.561 1.433-1.003s.646-.967.764-1.53zm-3.229-2.94l-.706-.674c-.632.232-1.175.641-1.558 1.173s-.59 1.161-.592 1.806c.002.713.254 1.404.716 1.965s1.106.959 1.832 1.132c.648-.752 1.027-1.681 1.083-2.653s-.215-1.935-.773-2.749zm4.861 2.836c-.003-.846-.356-1.656-.984-2.254s-1.478-.935-2.366-.937c-.41 0-.817.072-1.199.213l4.325 4.121c.148-.364.224-.752.224-1.142z"/></symbol><symbol id="client4" viewBox="0 0 32 32"><path fill="var(--color5, #afb1b8)" d="M10.805 14.462h-.001a.76.76 0 00-.771.751v.001a.76.76 0 00.771.751h.001a.76.76 0 00.771-.751v-.001a.76.76 0 00-.771-.751zm5.691-.24c-.001-.576-.237-1.129-.655-1.536s-.985-.637-1.576-.639c-.592.001-1.159.23-1.577.638s-.654.96-.655 1.537V17.4s4.463-.484 4.464-3.178v-.001zm-8.025 4.222c.001.401.165.785.456 1.069a1.576 1.576 0 002.194 0c.291-.284.455-.668.456-1.069v-2.212s-3.106.337-3.106 2.211zm1.552.396a.412.412 0 01-.376-.245c-.031-.072-.039-.152-.023-.229a.396.396 0 01.319-.311.419.419 0 01.235.023.402.402 0 01.251.366.396.396 0 01-.118.281.412.412 0 01-.288.116v-.002zm3.17-.246h-.318v.328h-.165v-.803h.523v.134h-.357v.207h.318v.133zm.795-.055c0 .079-.014.148-.042.208a.318.318 0 01-.299.187.317.317 0 01-.299-.185.479.479 0 01-.044-.205v-.04c0-.079.014-.149.042-.208a.32.32 0 01.3-.187.324.324 0 01.299.187c.029.06.043.129.043.208v.036zm-.167-.036c0-.084-.015-.148-.045-.192s-.073-.066-.129-.066c-.056 0-.098.022-.129.065s-.045.106-.046.19v.039c0 .082.015.146.045.191s.074.068.13.068c.056 0 .098-.022.128-.065s.045-.107.045-.191v-.039zm.704.209c0-.031-.011-.055-.033-.072s-.062-.035-.119-.053a.878.878 0 01-.136-.055c-.091-.049-.137-.116-.137-.199 0-.043.012-.082.036-.116s.06-.061.105-.08a.399.399 0 01.307.002c.045.021.08.05.104.088s.037.081.037.129h-.165c0-.037-.012-.065-.035-.085s-.056-.031-.098-.031c-.04 0-.072.009-.094.026s-.034.039-.034.067c0 .026.013.048.039.066s.065.034.116.05c.094.028.163.063.206.105s.065.094.065.157c0 .07-.026.124-.079.164s-.123.059-.212.059c-.062 0-.118-.011-.169-.034s-.09-.054-.116-.093a.243.243 0 01-.04-.137h.166c0 .089.053.133.159.133.039 0 .07-.008.092-.024s.033-.039.033-.067zm.883-.459h-.246v.669h-.165v-.669h-.243v-.134h.654v.134zm.578.321h-.318v.215h.373v.133h-.538v-.803h.537v.134h-.372v.191h.318v.13zm.449.054h-.132v.294h-.165v-.803h.298c.095 0 .168.021.219.063s.077.102.077.179c0 .055-.012.101-.036.137s-.059.065-.108.087l.174.328v.008h-.178l-.151-.294zm-.131-.134h.133c.042 0 .074-.011.096-.031s.034-.051.034-.088c0-.038-.011-.068-.033-.089s-.054-.033-.099-.033h-.133v.241zm1.002.145v.283h-.165v-.803h.313c.06 0 .113.011.159.033s.081.053.106.094c.025.04.037.087.037.138 0 .079-.027.141-.081.186s-.128.068-.223.068h-.145zm0-.134h.148c.044 0 .077-.01.1-.031s.035-.05.035-.088c0-.039-.012-.071-.035-.095s-.055-.037-.096-.038h-.152v.252zm1.047.069h-.318v.215h.373v.133h-.538v-.803h.537v.134h-.372v.191h.318v.13zm.767-.321h-.246v.669h-.166v-.669h-.243v-.134h.654v.134zm.578.321h-.318v.215h.373v.133h-.538v-.803h.537v.134h-.372v.191h.318v.13zm.45.054h-.132v.294h-.165v-.803h.298c.095 0 .168.021.219.063s.077.102.077.179c0 .055-.012.101-.036.137s-.059.065-.107.087l.174.328v.008h-.178l-.151-.294zm-.132-.134h.133c.042 0 .074-.011.097-.031s.034-.051.034-.088c0-.038-.011-.068-.032-.089s-.054-.033-.099-.033h-.133v.241zm.972.218c0-.031-.011-.055-.033-.072s-.062-.035-.119-.053a.878.878 0 01-.136-.055c-.091-.049-.137-.116-.137-.199 0-.043.012-.082.037-.116s.06-.061.105-.08a.404.404 0 01.308.002c.045.021.08.05.104.088s.037.081.037.129h-.165c0-.037-.011-.065-.035-.085s-.056-.031-.098-.031c-.04 0-.072.009-.094.026s-.034.039-.034.067c0 .026.013.048.039.066s.065.034.117.05c.094.028.163.063.206.105s.065.094.065.157c0 .07-.026.124-.079.164s-.123.059-.212.059c-.062 0-.118-.011-.169-.034s-.09-.054-.116-.093a.235.235 0 01-.04-.137h.166c0 .089.053.133.159.133.039 0 .07-.008.092-.024s.033-.039.033-.067z"/></symbol><symbol id="client5" viewBox="0 0 32 32"><path fill="var(--color5, #afb1b8)" d="M11.386 19.064a.298.298 0 01.065.19c.002.045-.006.09-.023.132s-.044.079-.078.109a.435.435 0 01-.293.088h-.516v-1.206h.505a.43.43 0 01.28.08.28.28 0 01.098.225.27.27 0 01-.213.278c.068.013.13.049.174.103zm-.605-.182h.216a.203.203 0 00.137-.04.139.139 0 00.046-.117.15.15 0 00-.046-.118.211.211 0 00-.141-.041h-.212v.316zm.374.462c.017-.015.031-.034.04-.055s.013-.044.011-.067a.158.158 0 00-.052-.124.226.226 0 00-.147-.044h-.226v.332h.229a.227.227 0 00.145-.042zm1.263.238l-.281-.471h-.106v.471h-.242v-1.206h.458a.457.457 0 01.319.102.384.384 0 01.034.499.368.368 0 01-.218.122l.299.482h-.263zm-.386-.635h.198c.137 0 .206-.061.206-.183a.18.18 0 00-.05-.135.213.213 0 00-.155-.049h-.2l.002.367zm1.707.393h-.482l-.085.243h-.253l.442-1.192h.274l.441 1.192h-.253l-.083-.243zm-.064-.183l-.176-.509-.176.509h.352zm1.718.425h-.24l-.538-.82v.82h-.239v-1.206h.239l.538.825v-.825h.24v1.206zm1.369-.288a.524.524 0 01-.217.213.703.703 0 01-.337.076h-.427v-1.206h.427a.713.713 0 01.337.074c.092.046.168.12.217.21a.706.706 0 010 .632zm-.274-.029a.445.445 0 000-.576.414.414 0 00-.3-.102h-.167v.78h.167c.11.007.218-.03.3-.102zm-2.598-7.594s3.097 1.174 3.031 2.872v2.873s-3.094-1.174-3.03-2.873l-.001-2.872zm5.79 5.072a4.238 4.238 0 011.967-.728v-.899a4.039 4.039 0 00-1.967 1.627z"/><path fill="var(--color5, #afb1b8)" d="M19.328 17.014a4.214 4.214 0 012.319-2.087v-2.591s-4.41 1.672-4.317 4.091v4.09s.197-.075.506-.215c0-.131 0-.263.014-.395a4.254 4.254 0 011.478-2.893z"/><path fill="var(--color5, #afb1b8)" d="M18.909 18.534c.023-.284.075-.564.154-.838a3.958 3.958 0 00-.934 2.471c.25-.121.542-.272.848-.449a4.277 4.277 0 01-.069-1.184zm.175.015c-.029.358-.011.719.055 1.073 1.205-.724 2.559-1.842 2.507-3.194v-.118a3.958 3.958 0 00-2.293 1.075 4.05 4.05 0 00-.269 1.164z"/></symbol><symbol id="client6" viewBox="0 0 32 32"><path fill="var(--color5, #afb1b8)" d="M16.139 15.69a.611.611 0 01-.107-.387v-.561c0-.172.036-.303.107-.392s.193-.134.367-.134c.163 0 .279.038.347.114a.494.494 0 01.103.336v.132h-.291v-.134a.816.816 0 00-.008-.131.129.129 0 00-.042-.078.16.16 0 00-.106-.03.169.169 0 00-.111.032.155.155 0 00-.048.086.718.718 0 00-.011.139v.681a.37.37 0 00.037.191.145.145 0 00.133.057.147.147 0 00.103-.031.134.134 0 00.043-.083.777.777 0 00.009-.136v-.138h.291v.126a.547.547 0 01-.101.353c-.067.083-.181.125-.349.125s-.294-.045-.366-.137zm1.214.006c-.074-.087-.11-.215-.11-.383v-.591c0-.167.037-.293.11-.379s.197-.128.369-.128c.171 0 .294.043.367.128s.111.212.111.379v.591c0 .167-.037.295-.112.383s-.197.132-.366.132c-.169 0-.295-.045-.369-.131zm.505-.142a.366.366 0 00.035-.175v-.723a.348.348 0 00-.034-.171.145.145 0 00-.136-.057c-.026-.003-.053 0-.077.01s-.045.026-.06.047a.328.328 0 00-.035.171v.726c-.004.06.008.12.035.175a.188.188 0 00.272 0v-.003zm.693-1.321h.314l.236 1.09.241-1.09h.305l.031 1.573h-.226l-.024-1.093-.233 1.093h-.181l-.241-1.097-.022 1.097h-.228l.028-1.573zm1.478 0h.489c.281 0 .422.149.422.447 0 .285-.148.428-.445.427h-.166v.699h-.302l.002-1.573zm.418.672a.214.214 0 00.166-.05.268.268 0 00.043-.178.494.494 0 00-.015-.143c-.004-.016-.012-.03-.022-.043s-.023-.024-.038-.032a.281.281 0 00-.134-.025h-.117v.47h.117zm.928-.672h.324l.332 1.573h-.281l-.066-.363h-.289l-.068.363h-.285l.332-1.573zm.277 1.028l-.113-.66-.113.66h.226zm.648-1.028h.211l.404.897v-.897h.25v1.573h-.201l-.407-.937v.937h-.259l.001-1.573zm1.452.973l-.336-.971h.283l.205.624.192-.624h.277l-.332.971v.6h-.29v-.6zm-7.147 1.287v.082h-.246v.639h-.103v-.639h-.247v-.082h.597zm.772.721h-.08c-.008 0-.016-.002-.022-.007s-.011-.01-.013-.017l-.071-.171h-.341l-.071.171a.045.045 0 01-.011.019.034.034 0 01-.022.007h-.08l.302-.721h.105l.305.718zm-.5-.267h.285l-.121-.294a.539.539 0 01-.022-.068l-.011.038-.011.03-.119.293zm1.02.196a.27.27 0 00.105-.009c.015-.003.029-.008.043-.013s.027-.011.04-.018v-.162h-.121l-.009-.001-.008-.004-.005-.006c-.001-.002-.002-.005-.001-.007v-.055h.234v.276a.442.442 0 01-.202.074.865.865 0 01-.088.005.435.435 0 01-.152-.027c-.045-.017-.086-.043-.121-.075s-.06-.072-.078-.114a.415.415 0 01-.001-.301c.017-.043.044-.082.078-.114s.075-.058.121-.075a.496.496 0 01.318-.003.332.332 0 01.112.067l-.029.045c-.002.004-.006.007-.01.01s-.009.004-.014.004a.033.033 0 01-.019-.006l-.03-.017a.38.38 0 00-.095-.035.49.49 0 00-.077-.006.326.326 0 00-.116.02.252.252 0 00-.089.057.248.248 0 00-.056.09.366.366 0 000 .24.262.262 0 00.148.148.32.32 0 00.119.014zm.961-.011h.329v.082h-.43v-.721h.103l-.002.639zm.672.082h-.103v-.721h.103v.721zm.384-.718c.006.003.011.008.016.013l.441.544a.113.113 0 010-.026v-.537h.09v.724h-.052a.041.041 0 01-.038-.018l-.44-.543v.561h-.086v-.721h.054c.006 0 .012.001.017.003zm1.306-.003v.079h-.366v.238h.296v.077h-.296v.246h.366v.079h-.472v-.72h.472zm-10.81-4.455l4.581 1.231v4.315l-4.581-1.231v-4.315zm-.294-.367v4.893l5.168 1.389v-4.892l-5.168-1.39z"/><path fill="var(--color5, #afb1b8)" d="M12.886 20.224l-5.168-1.391v-4.892l5.168 1.39v4.893z"/><path fill="var(--color5, #afb1b8)" d="M10.202 11.983l4.521 1.216L12.8 15.02l-4.522-1.216 1.923-1.82zm-.086-.312l-2.399 2.271 5.168 1.39 2.398-2.271-5.168-1.39zm3.061 8.278l2.107-1.995-2.107-.567v2.563z"/></symbol></defs></svg>